<?xml version="1.0" encoding="iso-8859-1"?>
<!-- Generator: Adobe Illustrator 17.1.0, SVG Export Plug-In . SVG Version: 6.00 Build 0)  -->
<!DOCTYPE svg PUBLIC "-//W3C//DTD SVG 1.1//EN" "http://www.w3.org/Graphics/SVG/1.1/DTD/svg11.dtd">
<svg version="1.1" id="Capa_1" xmlns="http://www.w3.org/2000/svg" xmlns:xlink="http://www.w3.org/1999/xlink" x="0px" y="0px"
	 viewBox="0 0 398.715 398.715" style="enable-background:new 0 0 398.715 398.715;" xml:space="preserve">
<path d="M391.215,26.857H7.5c-4.143,0-7.5,3.357-7.5,7.5v304.098c0,9.527,10.847,14.211,20.296,17.227
	c10.079,3.219,24.342,6.084,42.394,8.521c36.561,4.936,85.097,7.654,136.668,7.654s100.107-2.719,136.667-7.654
	c18.052-2.438,32.315-5.303,42.393-8.521c9.45-3.016,20.297-7.699,20.297-17.227V34.357
	C398.715,30.215,395.357,26.857,391.215,26.857z M253.836,286.023c-14.393-2.827-33.428-4.384-53.601-4.384
	c-20.172,0-39.207,1.557-53.6,4.384c-3.13,0.615-6.372,1.336-9.487,2.226l51.144-246.392h23.885l51.145,246.392
	C260.207,287.359,256.966,286.639,253.836,286.023z M262.313,303.628c-9.255,3.224-30.274,6.987-62.077,6.987
	c-31.802,0-52.821-3.764-62.076-6.987c9.255-3.225,30.274-6.988,62.076-6.988C232.037,296.64,253.058,300.403,262.313,303.628z
	 M65.377,41.857h40.277c1.145,7.691,3.621,31.224-3.535,58.464c-9.394,35.747-31.07,63.478-64.57,82.736
	c14.838-22.255,24.337-50.296,27.86-82.786C68.273,73.862,66.502,51.674,65.377,41.857z M15,215.734
	c15.43,10.764,46.291,37.174,51.651,79.068c-7.707-3.428-17.901-6.975-27.083-6.975c-9.357,0-18.187,3.333-24.568,6.575V215.734z
	 M47.787,224.246c-7.616-8.068-15.213-14.318-21.344-18.799c59.158-26.247,81.732-69.15,90.183-101.314
	c7.272-27.68,5.553-51.701,4.178-62.275h52.169L132.678,235.98H57.73C54.686,231.959,51.371,228.043,47.787,224.246z
	 M227.498,41.857h49.86c-1.375,10.574-3.095,34.596,4.177,62.275c8.451,32.164,31.025,75.067,90.184,101.314
	c-6.131,4.48-13.727,10.73-21.344,18.799c-3.584,3.797-6.898,7.713-9.943,11.734h-72.639L227.498,41.857z M332.786,41.857
	c-1.125,9.816-2.896,32.004-0.032,58.414c3.522,32.487,13.02,60.528,27.855,82.782c-33.309-19.152-54.934-46.686-64.413-82.153
	c-7.306-27.334-4.823-51.26-3.682-59.043H332.786z M349.917,248.371c0.258-0.299,0.489-0.619,0.697-0.955
	c3.094-4.276,6.526-8.454,10.334-12.518c8.361-8.922,16.806-15.452,22.767-19.555v79.344c-6.417-3.328-15.49-6.859-25.121-6.859
	c-9.19,0-19.392,3.553-27.103,6.983C333.56,278.285,339.732,262.748,349.917,248.371z M383.715,188.416
	c-24.328-26.908-33.072-62.711-36.008-89.385c-2.936-26.685-0.773-49.289,0.195-57.174h35.813V188.416z M50.259,41.857
	c1.997,16.384,9.05,96.365-35.259,145.969V41.857H50.259z M326.794,350.264c-34.975,4.252-80.232,6.594-127.437,6.594
	c-47.205,0-92.463-2.342-127.437-6.594C27.955,344.918,17.238,338.79,15,337.054v-25.235c2.846-1.987,13.65-8.99,24.568-8.99
	c10.914,0,26.425,7.988,31.475,11.064c1.199,0.732,2.555,1.101,3.911,1.101c1.264,0,2.528-0.318,3.669-0.959
	c2.366-1.326,3.831-3.828,3.831-6.541c0-19.824-5.09-38.947-14.903-56.512h62.014l-10.43,50.245
	c-0.137,0.659-0.174,1.314-0.137,1.956c-0.006,0.149-0.02,0.295-0.02,0.446c0,10.788,14.78,15.074,27.657,17.604
	c14.393,2.826,33.428,4.383,53.6,4.383c20.173,0,39.208-1.557,53.601-4.383c12.877-2.53,27.657-6.816,27.657-17.604
	c0-0.151-0.014-0.297-0.02-0.446c0.037-0.642,0-1.297-0.137-1.956l-10.43-50.245h59.704c-9.814,17.564-14.903,36.688-14.903,56.512
	c0,2.713,1.465,5.215,3.831,6.541c1.141,0.641,2.405,0.959,3.669,0.959c1.356,0,2.712-0.368,3.911-1.101
	c5.035-3.077,20.506-11.064,31.475-11.064c11.869,0,23.614,8.283,25.121,9.383v24.843
	C381.477,338.79,370.76,344.918,326.794,350.264z"/>
<g>
</g>
<g>
</g>
<g>
</g>
<g>
</g>
<g>
</g>
<g>
</g>
<g>
</g>
<g>
</g>
<g>
</g>
<g>
</g>
<g>
</g>
<g>
</g>
<g>
</g>
<g>
</g>
<g>
</g>
</svg>
