<svg id="Calque_1" data-name="Calque 1" xmlns="http://www.w3.org/2000/svg" viewBox="0 0 1908.82 1908.82"><defs><style>.cls-1{fill:#8f182b;}.cls-2{fill:#ef524f;}.cls-3{fill:#ba2030;}.cls-4{fill:#cd2044;}.cls-5{fill:#d92f32;}.cls-6{fill:#1a1c4a;}</style></defs><polygon class="cls-1" points="1245.51 260.76 658.68 260.76 952.09 723.16 1245.51 260.76 1245.51 260.76"/><path class="cls-2" d="M1000,330.1a666.82,666.82,0,1,1-260.67,52.52A665.55,665.55,0,0,1,1000,330.1m0-284.51C472.89,45.59,45.59,472.89,45.59,1000s427.3,954.41,954.41,954.41,954.41-427.3,954.41-954.41S1527.11,45.59,1000,45.59Z" transform="translate(-45.59 -45.59)"/><path class="cls-3" d="M1408.86,1857.84a950.83,950.83,0,0,1-403.56,89.25c-527.12,0-954.42-427.3-954.42-954.41,0-188.39,54.58-364,148.81-512-1.85,5.14-3.66,10.31-5.39,15.49C121.83,627.22,81,775.58,81,932.75c0,531.12,466.61,961.67,1042.19,961.67A1124.55,1124.55,0,0,0,1408.86,1857.84Z" transform="translate(-45.59 -45.59)"/><path class="cls-4" d="M1683.45,1664.24a957,957,0,0,1-274.59,193.6,1124.55,1124.55,0,0,1-285.7,36.58C547.58,1894.42,81,1463.87,81,932.75c0-157.17,40.86-305.53,113.33-436.54-.49,1.45-1,2.9-1.46,4.34,0,0,0,0,0,0s0,0,0,.05A881.86,881.86,0,0,0,118,856.32c0,523.63,460,948.1,1027.47,948.1C1342.73,1804.42,1527,1753.14,1683.45,1664.24Z" transform="translate(-45.59 -45.59)"/><path class="cls-5" d="M1834.94,1464.76a956.45,956.45,0,0,1-151.47,199.46s0,0,0,0c-156.46,88.9-340.72,140.18-537.94,140.18C578.06,1804.42,118,1380,118,856.32A881.86,881.86,0,0,1,192.8,500.64a865.83,865.83,0,0,0-44,272.85c0,514.46,452,931.5,1009.5,931.5C1418.62,1705,1655.92,1614.09,1834.94,1464.76Z" transform="translate(-45.59 -45.59)"/><rect class="cls-6" x="497.17" y="715.85" width="906.68" height="906.68" rx="453.34"/></svg>