/* XPM */
static const char * osmo4[] = {
"32 32 266 2",
"  	c None",
". 	c #990909",
"+ 	c #A10505",
"@ 	c #AB0404",
"# 	c #AF0202",
"$ 	c #B10303",
"% 	c #AE0202",
"& 	c #A90505",
"* 	c #A10606",
"= 	c #990E0E",
"- 	c #990D0D",
"; 	c #A80303",
"> 	c #BD0000",
", 	c #D40000",
"' 	c #DE0000",
") 	c #E20000",
"! 	c #E10000",
"~ 	c #DC0000",
"{ 	c #CD0000",
"] 	c #B80101",
"^ 	c #A40909",
"/ 	c #A20505",
"( 	c #BD0101",
"_ 	c #E00000",
": 	c #CB0000",
"< 	c #A80000",
"[ 	c #7E0101",
"} 	c #6B0202",
"| 	c #670202",
"1 	c #720202",
"2 	c #920000",
"3 	c #B70000",
"4 	c #D70000",
"5 	c #B80303",
"6 	c #9D0B0B",
"7 	c #980909",
"8 	c #B00202",
"9 	c #DB0000",
"0 	c #B50909",
"a 	c #8A1313",
"b 	c #1C0505",
"c 	c #070505",
"d 	c #080808",
"e 	c #0A0A0A",
"f 	c #090909",
"g 	c #070707",
"h 	c #0C0404",
"i 	c #5B1414",
"j 	c #A70F0F",
"k 	c #CC0303",
"l 	c #CC0000",
"m 	c #AB0505",
"n 	c #950D0D",
"o 	c #B60101",
"p 	c #DD0000",
"q 	c #CF0202",
"r 	c #9C1414",
"s 	c #141414",
"t 	c #0C0C0C",
"u 	c #0F0F0F",
"v 	c #111111",
"w 	c #101010",
"x 	c #0E0E0E",
"y 	c #B70707",
"z 	c #DF0000",
"A 	c #D50000",
"B 	c #A90606",
"C 	c #970E0E",
"D 	c #B30202",
"E 	c #C50505",
"F 	c #812121",
"G 	c #191919",
"H 	c #161616",
"I 	c #181818",
"J 	c #171717",
"K 	c #151515",
"L 	c #AF0A0A",
"M 	c #D70101",
"N 	c #D60000",
"O 	c #AD0606",
"P 	c #AA0303",
"Q 	c #DA0000",
"R 	c #C80505",
"S 	c #8E1E1E",
"T 	c #1D1D1D",
"U 	c #1F1F1F",
"V 	c #202020",
"W 	c #B00909",
"X 	c #CE0000",
"Y 	c #9F0A0A",
"Z 	c #9B0808",
"` 	c #D20000",
" .	c #D80101",
"..	c #8B1B1B",
"+.	c #2D2D2D",
"@.	c #272727",
"#.	c #262626",
"$.	c #252525",
"%.	c #BB0606",
"&.	c #BB0303",
"*.	c #AF0303",
"=.	c #AF0B0B",
"-.	c #303030",
";.	c #2B2B2B",
">.	c #323232",
",.	c #CD0202",
"'.	c #A60A0A",
").	c #9E0909",
"!.	c #CF0000",
"~.	c #CE0404",
"{.	c #292929",
"].	c #B10808",
"^.	c #A70303",
"/.	c #B60A0A",
"(.	c #961010",
"_.	c #B90000",
":.	c #9C1212",
"<.	c #1A1A1A",
"[.	c #222222",
"}.	c #1C1C1C",
"|.	c #C20202",
"1.	c #A30606",
"2.	c #C60000",
"3.	c #2A2A2A",
"4.	c #3B3B3B",
"5.	c #444444",
"6.	c #434343",
"7.	c #3A3A3A",
"8.	c #1E1E1E",
"9.	c #131313",
"0.	c #BB0A0A",
"a.	c #AD0707",
"b.	c #9A1515",
"c.	c #D30000",
"d.	c #353535",
"e.	c #484848",
"f.	c #5F5F5F",
"g.	c #6C6C6C",
"h.	c #646464",
"i.	c #565656",
"j.	c #343434",
"k.	c #212121",
"l.	c #121212",
"m.	c #B30505",
"n.	c #B10404",
"o.	c #9A1111",
"p.	c #424242",
"q.	c #555555",
"r.	c #6B6B6B",
"s.	c #757575",
"t.	c #6E6E6E",
"u.	c #606060",
"v.	c #4E4E4E",
"w.	c #3F3F3F",
"x.	c #2C2C2C",
"y.	c #B10909",
"z.	c #B60707",
"A.	c #9B1515",
"B.	c #D00000",
"C.	c #494949",
"D.	c #595959",
"E.	c #676767",
"F.	c #696969",
"G.	c #616161",
"H.	c #525252",
"I.	c #454545",
"J.	c #B20707",
"K.	c #363636",
"L.	c #626262",
"M.	c #5B5B5B",
"N.	c #505050",
"O.	c #282828",
"P.	c #B80B0B",
"Q.	c #AC0707",
"R.	c #AA1111",
"S.	c #0D0D0D",
"T.	c #585858",
"U.	c #545454",
"V.	c #4B4B4B",
"W.	c #BF0303",
"X.	c #9F0B0B",
"Y.	c #B90707",
"Z.	c #242424",
"`.	c #313131",
" +	c #3E3E3E",
".+	c #474747",
"++	c #4D4D4D",
"@+	c #4F4F4F",
"#+	c #4C4C4C",
"$+	c #3D3D3D",
"%+	c #D90000",
"&+	c #8E1010",
"*+	c #A00808",
"=+	c #D00303",
"-+	c #3C3C3C",
";+	c #0B0B0B",
">+	c #AE0808",
",+	c #C10101",
"'+	c #BB0202",
")+	c #BA0A0A",
"!+	c #1B1B1B",
"~+	c #2F2F2F",
"{+	c #C10303",
"]+	c #A10A0A",
"^+	c #9F0707",
"/+	c #D80000",
"(+	c #BE0303",
"_+	c #821C1C",
":+	c #C20404",
"<+	c #232323",
"[+	c #A90C0C",
"}+	c #970C0C",
"|+	c #960E0E",
"1+	c #BE0101",
"2+	c #C60505",
"3+	c #131212",
"4+	c #B00B0B",
"5+	c #CE0101",
"6+	c #A80707",
"7+	c #990B0B",
"8+	c #C40404",
"9+	c #AD0909",
"0+	c #D00101",
"a+	c #B00505",
"b+	c #7B1C1C",
"c+	c #960C0C",
"d+	c #BC0202",
"e+	c #BC0808",
"f+	c #962525",
"g+	c #482E2E",
"h+	c #1E1616",
"i+	c #141010",
"j+	c #2F2020",
"k+	c #703636",
"l+	c #A81212",
"m+	c #A90707",
"n+	c #8E1313",
"o+	c #D30606",
"p+	c #B91E1E",
"q+	c #901919",
"r+	c #661010",
"s+	c #540F0F",
"t+	c #4F0D0D",
"u+	c #5A0F0F",
"v+	c #7A1515",
"w+	c #A21E1E",
"x+	c #C51212",
"y+	c #D60101",
"z+	c #980D0D",
"A+	c #930C0C",
"B+	c #B30404",
"C+	c #C60202",
"D+	c #7B1919",
"E+	c #8C1515",
"F+	c #9F0909",
"G+	c #B20303",
"H+	c #C30000",
"I+	c #CA0000",
"J+	c #C90000",
"K+	c #BC0101",
"L+	c #AA0505",
"M+	c #8F1111",
"N+	c #7F1E1E",
"O+	c #732626",
"P+	c #762A2A",
"Q+	c #6E2828",
"                                                                ",
"                        . + @ # $ % & * =                       ",
"                  - ; > , ' ) ) ! ) ! ~ { ] ^                   ",
"                / ( ' _ : < [ } | 1 2 3 4 ) , 5 6               ",
"            7 8 9 ' 0 a b c d e e f g h i j k ) l m             ",
"          n o p q r     s t u v v w t x       y z A B           ",
"        C D ) E F         G H I G J K           L M N O         ",
"        P Q R S             T U U T V             W ' X Y       ",
"      Z `  ...              +.@.#.$.                %.! &.      ",
"      *.) =.                  -.;.>.                  ,.4 '.    ",
"    ).!.~.                      {.                    ].) (     ",
"    ^.z /.                      $.                      A ` (.  ",
"    _.! :.              K K <.V [.}.K K                 |.z 1.  ",
"    2.9               v <.3.4.5.6.7.;.8.9.J             0.) a.  ",
"  b.!.c.            w }.d.e.f.g.h.i.5.j.k.l.            m._ n.  ",
"  o.` !.          u J 3.p.q.r.s.t.u.v.w.x.T w           y._ z.  ",
"  A.B.`           u k.j.C.D.E.g.F.G.H.I.j.$.9.l.        m._ J.  ",
"    : 4         s v #.K.C.q.u.h.L.M.N.I.K.O.J x         P.) Q.  ",
"    > z R.      S.9.#.d.5.v.i.D.T.U.V.p.j.{.G t         W._ X.  ",
"    % ) Y.      l.9.Z.`. +.+++N.@+#+I.$+>.@.I t         { %+&+  ",
"    *+, =+      x w V ;.K.$+6.I.I.p.-+K.;.[.H ;+      >+z ,+    ",
"      '+_ )+    x S.!+Z.~+d.7.-+-+7.d.~+#.8.9.;+      {+_ ]+    ",
"      ^+/+,       e s }.$.;.~+`.`.-.;.#.U J S.w     z.' (+_+    ",
"        ] ) :+    t S.K T [.@.O.O.@.<+U I v ;+    [+` ~ }+      ",
"        |+1+) 2+    e t 9.I }.T 8.}.G K u e 3+  4+5+' 6+        ",
"          7+l ) 8+    e ;+u 9.K K 9.v S.f w   9+0+) a+b+        ",
"            c+d+) N e+f+g+h+;+f e f i+j+k+l+|.~ /+m+            ",
"              n+D N ! o+p+q+r+s+t+u+v+w+x+y+! X z+              ",
"                  A+B+X _ ! ~ /+N %+' ) ~ C+Y D+                ",
"                      E+F+G+H+I+l J+K+L+M+N+                    ",
"                              O+P+Q+                            ",
"                                                                "};
