/* XPM */
static char* osmo4[] = {
"32 32 3 1",
"  c None",
"! c #000000",
"# c #FF0000",
"                                ",
"           #########            ",
"         ##############         ",
"       ##################       ",
"      ####################      ",
"     #######!!!!!!!!#######     ",
"    ###### !!!!!!!!!! ######    ",
"   ######   !!!!!!!!   ######   ",
"   #####     !!!!!!     #####   ",
"  #####       !!!!       #####  ",
"  ####         !!         ####  ",
" #####        !!!!        ##### ",
" ####       !!!!!!!!       #### ",
" ####      !!!!!!!!!!      #### ",
" ####     !!!!!!!!!!!!     #### ",
"#####    !!!!!!!!!!!!!!    #### ",
" ###     !!!!!!!!!!!!!!    #### ",
" ####   !!!!!!!!!!!!!!!!   #### ",
" ####   !!!!!!!!!!!!!!!!   #### ",
" ####   !!!!!!!!!!!!!!!!   #### ",
"  ####  !!!!!!!!!!!!!!!!  ####  ",
"  ####  !!!!!!!!!!!!!!!!  ####  ",
"  #####  !!!!!!!!!!!!!!  #####  ",
"   ##### !!!!!!!!!!!!!! #####   ",
"   ###### !!!!!!!!!!!! ######   ",
"    ###### !!!!!!!!!! ######    ",
"     #######!!!!!!!!#######     ",
"      ########!!!!########      ",
"       ##################       ",
"         ##############         ",
"           #########            ",
"                                "};

