<?xml version="1.0" encoding="utf-8"?>
<!-- Svg Vector Icons : http://www.onlinewebfonts.com/icon -->
<!DOCTYPE svg PUBLIC "-//W3C//DTD SVG 1.1//EN" "http://www.w3.org/Graphics/SVG/1.1/DTD/svg11.dtd">
<svg version="1.1" xmlns="http://www.w3.org/2000/svg" xmlns:xlink="http://www.w3.org/1999/xlink" x="0px" y="0px" viewBox="0 0 1000 1000" enable-background="new 0 0 1000 1000" xml:space="preserve">
<metadata> Svg Vector Icons : http://www.onlinewebfonts.com/icon </metadata>
<g><path d="M52.4,294.2c112.7,55.2,225.7,110,338.2,165.9c35.1,17.4,70.5,30.5,101.2,29.2c38.9-0.2,68.7-5.6,97.3-19.7c119.6-58.8,239.5-117.2,359.4-175.9c11-5.5,22.2-10.7,31.1-20.6c14.1-15.5,13.9-32.9-0.5-48c-7.3-7.7-16-13-25-17.4C843.7,154,733.5,100.3,623.5,46.1c-35.3-17.4-70.2-35-109.7-36c-33.4-0.9-66.2,1.8-97.2,16.8C293,86.9,169.8,147.4,46.5,207.7c-9.7,4.7-18.9,10.4-26.5,18.8c-13.1,14.8-13,30.7-0.1,45.7C29,282.8,40.7,288.4,52.4,294.2z"/><path d="M957.9,460.4c-23.8-11.7-47.5-23.9-71.5-34.9c-18.4-8.3-37.6-7.9-55.9,1c-58.8,28.4-117.6,57.2-176.2,86.2c-43.1,21.3-85.8,42.7-134.1,44.9c-43.7,2.1-86.5-2.4-127-22c-74.6-35.9-148.9-72.6-223.4-108.8c-19.4-9.4-39.3-9.3-58.5-0.7c-22.1,10-43.6,21.2-65.4,31.9c-9.6,4.8-18.9,10.3-26.5,18.9c-12.8,14.9-12.7,31.1,0.4,45.7c8.5,9.6,19.2,15.1,30.1,20.5c111,54.4,222.1,108.4,333,163.4c37.6,18.6,75.3,34.7,117.2,32.9c29.6-0.7,58.7-5,86.4-18.5c122.6-60,245.3-120,368-180c8.7-4.3,17.2-9.4,24.3-17c14.5-15.3,14.7-32.4,0.5-48C973.2,469.3,965.9,464.3,957.9,460.4z"/><path d="M956.4,709.8c-21.1-10.5-42.4-20.8-63.6-31.2c-21.9-10.7-43.5-10.9-65.5-0.1c-60.1,29.5-120.7,58.1-180.6,88.4c-43.5,22.1-87.4,40.8-135.8,41.7c-41.8,0.8-82.3-5-121.1-23.9c-72.9-35.7-146-71.4-218.9-107c-20.2-9.8-40.8-9.8-61.1-0.2c-22.4,10.7-44.8,21.9-67.1,32.9c-9.1,4.5-17.5,10.2-24.3,18.7c-10.6,13.2-11,27-1,40.9c7.5,10.3,17.6,16.5,28.2,21.7c114.8,56.2,229.8,112,344.4,168.6c34.8,17.2,69.8,30.7,108.3,29.6c32.3-0.3,63.4-6.1,93.5-20.9c120.7-59.5,241.8-118.2,362.7-177.4c10.8-5.3,21.2-11.7,28.8-22.5c9.3-13.3,8.7-26.4-1.1-39.3C975.1,720.6,966,714.6,956.4,709.8z"/></g>
</svg>