<?xml version="1.0" encoding="iso-8859-1"?>
<!-- Generator: Adobe Illustrator 19.0.0, SVG Export Plug-In . SVG Version: 6.00 Build 0)  -->
<svg version="1.1" id="Capa_1" xmlns="http://www.w3.org/2000/svg" xmlns:xlink="http://www.w3.org/1999/xlink" x="0px" y="0px"
	 viewBox="0 0 489.6 489.6" style="enable-background:new 0 0 489.6 489.6;" xml:space="preserve">
<g>
	<g>
		<g>
			<path d="M244.8,0C109.6,0,0,109.6,0,244.8s109.6,244.8,244.8,244.8S489.6,380,489.6,244.8S380,0,244.8,0z M244.8,442.6
				C135.6,442.6,47,354,47,244.8S135.6,47,244.8,47s197.8,88.6,197.8,197.8S354,442.6,244.8,442.6z"/>
			<path d="M122,368l160.1-85.9l85.5-160.5l-160.5,85.9L122,368z M244.8,221.1c13.2,0,23.7,10.5,23.7,23.7s-10.5,23.7-23.7,23.7
				s-23.7-10.5-23.7-23.7C220.7,231.6,231.6,221.1,244.8,221.1z"/>
		</g>
	</g>
</g>
<g>
</g>
<g>
</g>
<g>
</g>
<g>
</g>
<g>
</g>
<g>
</g>
<g>
</g>
<g>
</g>
<g>
</g>
<g>
</g>
<g>
</g>
<g>
</g>
<g>
</g>
<g>
</g>
<g>
</g>
</svg>
