<?xml version="1.0" encoding="iso-8859-1"?>
<!-- Generator: Adobe Illustrator 17.1.0, SVG Export Plug-In . SVG Version: 6.00 Build 0)  -->
<!DOCTYPE svg PUBLIC "-//W3C//DTD SVG 1.1//EN" "http://www.w3.org/Graphics/SVG/1.1/DTD/svg11.dtd">
<svg version="1.1" id="Capa_1" xmlns="http://www.w3.org/2000/svg" xmlns:xlink="http://www.w3.org/1999/xlink" x="0px" y="0px"
	 viewBox="0 0 100 100" style="enable-background:new 0 0 100 100;" xml:space="preserve">
<g>
	<path style="fill:#1D1D1B;" d="M89.5,20h-79c-2.761,0-5,2.239-5,5v50c0,2.761,2.239,5,5,5h79c2.761,0,5-2.239,5-5V25
		C94.5,22.239,92.261,20,89.5,20z M49.288,73.572H32.383h-15.05c-2.761,0-3.417-1.583-1.464-3.536L29.775,56.13
		c0.976-0.976,2.256-1.464,3.536-1.464c1.28,0,2.559,0.488,3.536,1.464l3.989,3.989l9.917,9.917
		C52.705,71.989,52.05,73.572,49.288,73.572z M22.333,29.5c4.418,0,8,3.582,8,8s-3.582,8-8,8c-4.418,0-8-3.582-8-8
		S17.915,29.5,22.333,29.5z M86.239,73.572H54.603c0.355-0.94,0.77-3.158-1.729-5.657l-9.917-9.917L55.775,45.18
		c1.953-1.953,5.118-1.953,7.071,0l24.857,24.857C89.656,71.989,89,73.572,86.239,73.572z"/>
</g>
</svg>
