<?xml version="1.0" encoding="UTF-8" standalone="no"?>
<svg
   xmlns:svg="http://www.w3.org/2000/svg"
   xmlns="http://www.w3.org/2000/svg"
   version="1.1"
   viewBox="0 0 20.773 20.773"
   xml:space="preserve"
   width="100"
   height="100">

<path
     d="M 10.331,0 C 4.595,0.031 -0.031,4.706 0,10.443 0.03,16.179 4.708,20.804 10.442,20.774 16.181,20.743 20.804,16.068 20.773,10.332 20.742,4.594 16.07,-0.03 10.331,0 z m 0.103,19.082 C 5.632,19.106 1.723,15.236 1.696,10.434 1.671,5.633 5.538,1.718 10.34,1.692 c 4.802,-0.026 8.716,3.848 8.743,8.647 0.025,4.803 -3.848,8.716 -8.649,8.743 
M 10.5, 13.6
        m -5.5, 0
        a 5.5,5.5 0 1,0 11,0
        a 5.5,5.5 0 1,0 -11,0

M 10.5, 8.1
L 14.5, 1.6
L 6.5, 1.6
L 10.5, 8.1
"
     
/>

</svg>
