<?xml version="1.0" encoding="iso-8859-1"?>
<!-- Generator: Adobe Illustrator 17.1.0, SVG Export Plug-In . SVG Version: 6.00 Build 0)  -->
<!DOCTYPE svg PUBLIC "-//W3C//DTD SVG 1.1//EN" "http://www.w3.org/Graphics/SVG/1.1/DTD/svg11.dtd">
<svg version="1.1" id="Capa_1" xmlns="http://www.w3.org/2000/svg" xmlns:xlink="http://www.w3.org/1999/xlink" x="0px" y="0px"
	 viewBox="0 0 100 100" style="enable-background:new 0 0 100 100;" xml:space="preserve">
<g>
	<path style="fill:#1D1D1B;" d="M38.667,7.559H26.333c-2.761,0-5,2.239-5,5v74.882c0,2.761,2.239,5,5,5h12.334c2.761,0,5-2.239,5-5
		V12.559C43.667,9.798,41.428,7.559,38.667,7.559z"/>
	<path style="fill:#1D1D1B;" d="M72.667,7.559H60.333c-2.761,0-5,2.239-5,5v74.882c0,2.761,2.239,5,5,5h12.334c2.761,0,5-2.239,5-5
		V12.559C77.667,9.798,75.428,7.559,72.667,7.559z"/>
</g>
</svg>
