<?xml version="1.0" encoding="utf-8"?>
<!-- Generator: Adobe Illustrator 16.0.4, SVG Export Plug-In . SVG Version: 6.00 Build 0)  -->
<!DOCTYPE svg PUBLIC "-//W3C//DTD SVG 1.1//EN" "http://www.w3.org/Graphics/SVG/1.1/DTD/svg11.dtd">
<svg version="1.1" id="Capa_1" xmlns="http://www.w3.org/2000/svg" xmlns:xlink="http://www.w3.org/1999/xlink" x="0px" y="0px"
	 width="28.335px" height="28.333px" viewBox="0 0 28.335 28.333" enable-background="new 0 0 28.335 28.333" xml:space="preserve">
<g>
	<path d="M14.167,0C6.356,0,0,6.355,0,14.167s6.356,14.167,14.167,14.167c7.812,0,14.168-6.354,14.168-14.167
		C28.335,6.355,21.979,0,14.167,0z M11.443,5.072l0.662,0.188V4.389l0.258-0.243l0.276,0.536l0.526,0.635l-0.213,0.292l-0.848,0.195
		V5.288l-0.662,0.516L11.25,5.511L11.443,5.072z M1.239,13.851c0.066-2.742,0.989-5.269,2.513-7.336
		c0.051,0.007,0.087,0.02,0.087,0.02c0,0.195-0.266,0.242,0,0.732c0.34,0.634,0.048,0.927,0.048,0.927s-0.83,0.585-0.976,0.683
		C2.765,8.974,2.375,9.511,2.618,9.364c0.244-0.146,0.536-0.292,0.293,0.098c-0.244,0.391-0.683,1.024-0.78,1.269
		c-0.097,0.245-0.585,0.829-0.585,1.122S1.351,12.732,1.4,12.976C1.433,13.145,1.324,13.646,1.239,13.851z M6.277,21.999
		l-0.196,0.73l0.196,0.585c0,0-0.294,0.245-0.487,0.245c-0.18,0-0.241,0.113-0.438,0.061c-1.86-1.738-3.21-4.01-3.795-6.576
		c0.063,0.016,0.153,0.062,0.28,0.174c0.184,0.16,0.293,0.242,0.537,0.341c0.243,0.099,0.341,0.243,0.634,0.389
		c0.293,0.148,0.196,0.05,0.585,0.489c0.391,0.438,0.342,0.438,0.439,0.682c0.097,0.244,0.244,0.488,0.342,0.635
		s0.39,0.244,0.536,0.342c0.146,0.097,0.39,0.195,0.536,0.195c0.147,0,0.586,0.439,0.83,0.487c0.244,0.05,0.244,0.538,0.244,0.538
		L6.277,21.999z M8.228,3.171C7.594,3.853,7.74,3.658,7.594,3.853c-0.146,0.195-0.098,0.243-0.44,0.488
		C6.813,4.584,6.667,4.877,6.667,4.877L6.13,5.072L5.692,4.877c0,0-0.392,0.147-0.343-0.049c0.014-0.051,0.034-0.105,0.057-0.162
		C6.6,3.564,7.997,2.687,9.539,2.093C9.387,2.288,9.203,2.488,9.203,2.488S8.862,2.487,8.228,3.171z M23.105,20.681
		c-0.051,0.194-0.146,0.536-0.195,0.731s-0.293,0.586-0.438,0.683c-0.146,0.098-0.391,0.391-0.536,0.44
		c-0.146,0.049-0.245-0.343-0.196-0.537c0.051-0.197,0.293-0.732,0.293-0.732s0.049-0.292,0.098-0.488
		c0.05-0.193,0.635-0.438,0.635-0.438l0.391-0.732c0,0,0.049,0.196,0.049,0.342C23.203,20.095,23.154,20.486,23.105,20.681z
		 M23.251,16.096c-0.098,0.146-0.391,0.535-0.537,0.73s-0.34,0.488-0.633,0.732s-0.295,0.486-0.439,0.684
		c-0.146,0.195-0.342,0.633-0.342,0.633s0.098,0.977,0.146,1.172c0.05,0.195-0.341,0.73-0.341,0.73l-0.439,0.439l-0.588,0.781
		l0.047,0.73c0,0-0.443,0.342-0.688,0.537c-0.242,0.195-0.204,0.341-0.399,0.537c-0.193,0.193-0.711,0.535-0.906,0.585
		c-0.194,0.049-1.023,0.194-1.023,0.194v-0.438l-0.27-0.488c0,0-0.271-0.584-0.418-0.781c-0.146-0.194-0.145-0.488-0.389-0.731
		c-0.244-0.244-0.363-0.438-0.412-0.586c-0.05-0.146,0.036-0.584,0.036-0.584s0.188-0.537,0.286-0.731
		c0.098-0.195-0.003-0.488-0.102-0.684c-0.098-0.196-0.146-0.684-0.146-0.829s-0.394-0.392-0.539-0.537
		c-0.146-0.147-0.098-0.342-0.098-0.536c0-0.195-0.146-0.635-0.099-0.976c0.049-0.341-0.438-0.099-0.73,0
		c-0.293,0.097-0.487-0.099-0.487-0.392c0-0.291-0.536-0.047-0.878,0.146c-0.343,0.195-0.732,0.195-1.124,0.341
		c-0.389,0.146-0.583-0.146-0.583-0.146s-0.343-0.293-0.585-0.439c-0.245-0.146-0.489-0.438-0.685-0.682
		c-0.194-0.245-0.683-0.977-0.73-1.268c-0.049-0.294,0-0.49,0-0.831c0-0.341,0-0.536,0.048-0.78
		c0.049-0.244,0.195-0.537,0.342-0.781c0.146-0.244,0.683-0.536,0.828-0.634c0.146-0.097,0.488-0.389,0.488-0.585
		c0-0.195,0.196-0.292,0.292-0.488c0.099-0.195,0.44-0.682,0.879-0.487c0,0,0.389-0.048,0.535-0.097
		c0.146-0.049,0.536-0.194,0.729-0.292c0.195-0.098,0.681-0.144,0.681-0.144s0.384,0.153,0.53,0.153s0.623-0.085,0.623-0.085
		s0.22,0.707,0.22,0.854s0.146,0.292,0.392,0.39c0.242,0.097,1.365,0.341,1.854-0.049c0.113-0.09,0.486,0.146,0.486,0.146
		s1.219,0.244,1.414,0.39c0.196,0.147,0.537,0.245,0.635,0.392c0.099,0.146,0.438,0.585,0.486,0.731
		c0.051,0.146,0.295,0.684,0.344,0.878c0.049,0.195,0.194,0.683,0.34,0.927c0.146,0.245,0.977,1.316,1.269,1.805l0.88-0.146
		C23.447,15.511,23.349,15.95,23.251,16.096z M26.812,14.244c-0.048-0.196-0.341-0.879-0.341-0.879s-0.293-0.39-0.488-0.488
		c-0.194-0.098-0.341-0.342-0.683-0.536c-0.342-0.196-0.487-0.293-0.779-0.293c-0.294,0-0.585-0.391-0.928-0.586
		c-0.342-0.194-0.391-0.097-0.391-0.097s0.391,0.585,0.391,0.731s0.438,0.39,0.879,0.292c0,0,0.292,0.537,0.438,0.683
		c0.146,0.146-0.049,0.293-0.341,0.488c-0.293,0.194-0.243,0.146-0.392,0.292c-0.146,0.146-0.633,0.392-0.78,0.488
		c-0.146,0.097-0.731,0.39-1.022,0.097c-0.144-0.141-0.1-0.438-0.195-0.634c-0.098-0.195-1.122-1.707-1.61-2.389
		c-0.085-0.12-0.293-0.49-0.438-0.585c-0.146-0.099,0.343-0.099,0.343-0.099s0-0.342-0.05-0.585c-0.049-0.244,0.05-0.585,0.05-0.585
		s-0.488,0.292-0.636,0.39c-0.146,0.098-0.293-0.194-0.486-0.439c-0.195-0.243-0.391-0.537-0.439-0.781
		c-0.049-0.243,0.244-0.341,0.244-0.341l0.438-0.243c0,0,0.537-0.097,0.88-0.049c0.341,0.049,0.877,0.098,0.877,0.098
		s0.146-0.342-0.05-0.488c-0.193-0.146-0.635-0.39-0.829-0.341c-0.194,0.048,0.097-0.244,0.34-0.439l-0.54-0.098
		c0,0-0.491,0.244-0.639,0.293c-0.146,0.048-0.399,0.146-0.596,0.39c-0.193,0.244,0.078,0.585-0.117,0.683
		c-0.193,0.098-0.326,0.146-0.473,0.194c-0.146,0.049-0.609,0-0.609,0c-0.504,0-0.182,0.46-0.051,0.623l-0.39-0.476l-0.289-0.684
		c0,0-0.416-0.292-0.61-0.389c-0.197-0.097-0.797-0.439-0.797-0.439l0.041,0.439l0.565,0.572l0.05,0.013l0.346,0.39l-0.598,0.049
		V8.101c-1-0.148-0.504-0.3-0.572-0.347c-0.145-0.097-0.51-0.342-0.51-0.342s-0.588,0.098-0.734,0.147
		c-0.147,0.049-0.193,0.195-0.485,0.292c-0.294,0.098-0.43,0.244-0.527,0.39c-0.097,0.146-0.416,0.585-0.609,0.78
		c-0.196,0.196-0.562,0.146-0.708,0.146c-0.147,0-0.854-0.195-0.854-0.195V8.145c0,0,0.098-0.464,0.049-0.61l0.429-0.072
		l0.713-0.147l0.21-0.147l0.3-0.39c0,0-0.337-0.244-0.094-0.585c0.117-0.164,0.538-0.195,0.733-0.341
		c0.194-0.146,0.489-0.244,0.489-0.244s0.342-0.292,0.683-0.634c0,0,0.244-0.147,0.536-0.245c0,0,0.83,0.732,0.977,0.732
		c0.147,0,0.684-0.341,0.684-0.341s0.146-0.438,0.098-0.585c-0.049-0.146-0.293-0.634-0.293-0.634s-0.146,0.244-0.291,0.439
		c-0.146,0.195-0.246,0.439-0.246,0.439s-0.684-0.047-0.731-0.193c-0.05-0.147-0.146-0.388-0.196-0.533
		c-0.047-0.147-0.438-0.142-0.729-0.044c-0.294,0.098,0.047-0.526,0.047-0.526s0.294-0.368,0.488-0.368
		c0.193,0,0.635-0.25,0.828-0.298c0.195-0.049,0.782-0.424,1.024-0.424c0.244,0,0.537-0.046,0.685-0.046c0.146,0,0.73,0,0.73,0
		l1.023,0.069c0,0,0.879,0.4,0.584,0.596c0,0,0.344,0.25,0.49,0.396c0.137,0.138,0.49-0.108,0.693-0.221
		c3.65,2.292,6.091,6.352,6.091,10.971c0,0.248-0.022,0.495-0.036,0.74C26.982,14.667,26.845,14.372,26.812,14.244z"/>
	<polygon points="11.722,5.26 11.722,5.288 11.738,5.268 	"/>
</g>
</svg>
