<?xml version="1.0" encoding="iso-8859-1"?>
<!-- Generator: Adobe Illustrator 17.1.0, SVG Export Plug-In . SVG Version: 6.00 Build 0)  -->
<!DOCTYPE svg PUBLIC "-//W3C//DTD SVG 1.1//EN" "http://www.w3.org/Graphics/SVG/1.1/DTD/svg11.dtd">
<svg version="1.1" id="Capa_1" xmlns="http://www.w3.org/2000/svg" xmlns:xlink="http://www.w3.org/1999/xlink" x="0px" y="0px"
	 viewBox="0 0 100 100" style="enable-background:new 0 0 100 100;" xml:space="preserve">
<g>
	<path style="fill:#000100;" d="M92.65,40.824l-5.183,0l3.665-3.665c1.528-1.528,1.528-4.005,0-5.533l-6.456-6.456
		c-1.528-1.528-4.005-1.528-5.533,0l-3.666,3.665v-5.184c0-2.161-1.752-3.913-3.913-3.913h-9.129c-2.161,0-3.913,1.752-3.913,3.913
		v5.183l-3.665-3.665c-1.528-1.528-4.005-1.528-5.533,0l-6.456,6.456c-1.528,1.528-1.528,4.005,0,5.533l3.665,3.665H41.35
		c-2.161,0-3.913,1.752-3.913,3.913v9.129c0,2.161,1.752,3.913,3.913,3.913h5.183l-3.665,3.665c-1.528,1.528-1.528,4.005,0,5.533
		l6.456,6.456c1.528,1.528,4.005,1.528,5.533,0l3.666-3.665v5.184c0,2.161,1.752,3.913,3.913,3.913h9.129
		c2.161,0,3.913-1.752,3.913-3.913v-5.183l3.665,3.665c1.528,1.528,4.005,1.528,5.533,0l6.456-6.456
		c1.528-1.528,1.528-4.005,0-5.533l-3.665-3.665h5.183c2.161,0,3.913-1.752,3.913-3.913v-9.13
		C96.562,42.576,94.811,40.824,92.65,40.824z M67,58.776c-5.233,0-9.475-4.242-9.475-9.475s4.242-9.475,9.475-9.475
		s9.475,4.242,9.475,9.475S72.233,58.776,67,58.776z"/>
	<path style="fill:#000100;" d="M9.847,26.553h2.692l-1.904,1.904c-0.794,0.794-0.794,2.08,0,2.874l3.353,3.353
		c0.793,0.794,2.081,0.794,2.874,0l1.904-1.904v2.692c0,1.122,0.91,2.032,2.032,2.032h4.742c1.122,0,2.032-0.91,2.032-2.032V32.78
		l1.904,1.904c0.794,0.794,2.081,0.794,2.874,0l3.353-3.353c0.794-0.794,0.794-2.08,0-2.874L33.8,26.553h2.692
		c1.122,0,2.032-0.91,2.032-2.032v-4.742c0-1.122-0.91-2.032-2.032-2.032H33.8l1.904-1.904c0.794-0.794,0.794-2.08,0-2.874
		l-3.353-3.353c-0.793-0.794-2.08-0.794-2.874,0l-1.904,1.904V8.827c0-1.122-0.91-2.032-2.032-2.032h-4.742
		c-1.122,0-2.032,0.91-2.032,2.032v2.692l-1.904-1.904c-0.793-0.794-2.081-0.794-2.874,0l-3.353,3.353
		c-0.794,0.794-0.794,2.08,0,2.874l1.904,1.904H9.847c-1.123,0-2.032,0.91-2.032,2.032v4.742
		C7.814,25.643,8.724,26.553,9.847,26.553z M23.169,17.228c2.718,0,4.922,2.203,4.922,4.922c0,2.718-2.203,4.922-4.922,4.922
		s-4.922-2.203-4.922-4.922C18.248,19.432,20.451,17.228,23.169,17.228z"/>
	<path style="fill:#000100;" d="M36.492,72.746H33.8l1.904-1.904c0.794-0.794,0.794-2.08,0-2.874l-3.353-3.353
		c-0.793-0.794-2.08-0.794-2.874,0l-1.904,1.904v-2.692c0-1.122-0.91-2.032-2.032-2.032h-4.742c-1.122,0-2.032,0.91-2.032,2.032
		v2.692l-1.904-1.904c-0.793-0.794-2.081-0.794-2.874,0l-3.353,3.353c-0.794,0.794-0.794,2.08,0,2.874l1.904,1.904H9.847
		c-1.123,0-2.032,0.91-2.032,2.032v4.742c0,1.122,0.91,2.032,2.032,2.032h2.692l-1.904,1.904c-0.794,0.794-0.794,2.08,0,2.874
		l3.353,3.353c0.793,0.794,2.081,0.794,2.874,0l1.904-1.904v2.692c0,1.122,0.91,2.032,2.032,2.032h4.742
		c1.122,0,2.032-0.91,2.032-2.032V87.78l1.904,1.904c0.794,0.794,2.081,0.794,2.874,0l3.353-3.353c0.794-0.794,0.794-2.08,0-2.874
		L33.8,81.553h2.692c1.122,0,2.032-0.91,2.032-2.032v-4.742C38.525,73.656,37.615,72.746,36.492,72.746z M23.169,82.071
		c-2.718,0-4.922-2.203-4.922-4.922c0-2.718,2.203-4.922,4.922-4.922s4.922,2.203,4.922,4.922
		C28.091,79.868,25.888,82.071,23.169,82.071z"/>
</g>
</svg>
