<?xml version="1.0" encoding="iso-8859-1"?>
<!-- Generator: Adobe Illustrator 17.1.0, SVG Export Plug-In . SVG Version: 6.00 Build 0)  -->
<!DOCTYPE svg PUBLIC "-//W3C//DTD SVG 1.1//EN" "http://www.w3.org/Graphics/SVG/1.1/DTD/svg11.dtd">
<svg version="1.1" id="Capa_1" xmlns="http://www.w3.org/2000/svg" xmlns:xlink="http://www.w3.org/1999/xlink" x="0px" y="0px"
	 viewBox="0 0 100 100" style="enable-background:new 0 0 100 100;" xml:space="preserve">
<g>
	<path style="fill:#1D1D1B;" d="M62.414,9.2c-1.439,0-2.684,0.526-3.734,1.576L31.049,28.46H9.311c-1.439,0-2.684,0.526-3.734,1.576
		C4.525,31.087,4,32.332,4,33.77v31.862c0,1.439,0.525,2.684,1.577,3.734c1.05,1.051,2.294,1.576,3.734,1.576h21.739l27.63,17.683
		c1.05,1.051,2.294,1.576,3.734,1.576c1.438,0,2.682-0.525,3.733-1.576c1.05-1.05,1.577-2.295,1.577-3.734V14.511
		c0-1.438-0.526-2.682-1.577-3.734C65.096,9.727,63.851,9.2,62.414,9.2z"/>
	<path style="fill:#1D1D1B;" d="M82.873,30.202c-0.554-0.276-1.245-0.415-2.074-0.415c-1.439,0-2.684,0.512-3.734,1.535
		c-1.051,1.024-1.576,2.282-1.576,3.776c0,1.162,0.332,2.144,0.995,2.945c0.664,0.803,1.465,1.493,2.406,2.074
		c0.94,0.581,1.88,1.217,2.821,1.908c0.94,0.692,1.743,1.674,2.406,2.946c0.664,1.273,0.996,2.849,0.996,4.729
		c0,1.881-0.332,3.458-0.996,4.73c-0.664,1.273-1.466,2.255-2.406,2.945c-0.941,0.692-1.881,1.328-2.821,1.909
		c-0.941,0.581-1.742,1.273-2.406,2.074c-0.664,0.803-0.995,1.784-0.995,2.945c0,1.494,0.525,2.753,1.576,3.776
		c1.05,1.024,2.295,1.535,3.734,1.535c0.83,0,1.521-0.137,2.074-0.415c3.872-1.548,6.983-4.134,9.334-7.758
		c2.351-3.622,3.526-7.536,3.526-11.741c0-4.203-1.176-8.131-3.526-11.782C89.855,34.268,86.744,31.695,82.873,30.202z"/>
</g>
</svg>
