<?xml version="1.0" encoding="iso-8859-1"?>
<!-- Generator: Adobe Illustrator 17.1.0, SVG Export Plug-In . SVG Version: 6.00 Build 0)  -->
<!DOCTYPE svg PUBLIC "-//W3C//DTD SVG 1.1//EN" "http://www.w3.org/Graphics/SVG/1.1/DTD/svg11.dtd">
<svg version="1.1" id="Capa_1" xmlns="http://www.w3.org/2000/svg" xmlns:xlink="http://www.w3.org/1999/xlink" x="0px" y="0px"
	 viewBox="0 0 100 100" style="enable-background:new 0 0 100 100;" xml:space="preserve">
<g>
	<path style="fill:#1D1D1B;" d="M87.368,12.622L57.739,42.251v-27.4c0-4.204-2.41-5.202-5.382-2.229l-29.18,29.18V13.955
		c0-1.681-1.363-3.044-3.044-3.044H11c-1.681,0-3.044,1.363-3.044,3.044v72.679c0,1.681,1.363,3.044,3.044,3.044h9.133
		c1.681,0,3.044-1.363,3.044-3.044V58.788l29.18,29.18c2.972,2.972,5.382,1.974,5.382-2.229v-27.4l29.629,29.629
		c2.972,2.972,5.382,1.974,5.382-2.229V14.851C92.75,10.648,90.34,9.65,87.368,12.622z"/>
</g>
</svg>
