<?xml version="1.0" encoding="iso-8859-1"?>
<!-- Generator: Adobe Illustrator 17.1.0, SVG Export Plug-In . SVG Version: 6.00 Build 0)  -->
<!DOCTYPE svg PUBLIC "-//W3C//DTD SVG 1.1//EN" "http://www.w3.org/Graphics/SVG/1.1/DTD/svg11.dtd">
<svg version="1.1" id="Capa_1" xmlns="http://www.w3.org/2000/svg" xmlns:xlink="http://www.w3.org/1999/xlink" x="0px" y="0px"
	 viewBox="0 0 100 100" style="enable-background:new 0 0 100 100;" xml:space="preserve">
<g>
	<path style="fill:#1D1D1B;" d="M51.763,5.879c-0.974-1.706-2.552-1.706-3.525,0L36.032,27.271
		c-0.974,1.706-0.171,3.089,1.794,3.089h24.348c1.965,0,2.768-1.383,1.794-3.089L51.763,5.879z"/>
	<path style="fill:#1D1D1B;" d="M62.174,69.225H37.826c-1.965,0-2.768,1.383-1.794,3.089l12.205,21.392
		c0.974,1.706,2.552,1.706,3.525,0l12.205-21.392C64.941,70.608,64.139,69.225,62.174,69.225z"/>
	<path style="fill:#1D1D1B;" d="M93.913,48.03L72.521,35.824c-1.706-0.973-3.089-0.17-3.089,1.794v24.348
		c0,1.964,1.383,2.767,3.089,1.794l21.392-12.206C95.619,50.581,95.619,49.003,93.913,48.03z"/>
	<path style="fill:#1D1D1B;" d="M27.479,35.824L6.087,48.03c-1.706,0.973-1.706,2.552,0,3.525L27.479,63.76
		c1.706,0.973,3.089,0.17,3.089-1.794V37.618C30.567,35.654,29.185,34.851,27.479,35.824z"/>
	<circle style="fill:#1D1D1B;" cx="50" cy="49.792" r="12.374"/>
</g>
</svg>
