<?xml version="1.0" encoding="iso-8859-1"?>
<!-- Generator: Adobe Illustrator 16.0.0, SVG Export Plug-In . SVG Version: 6.00 Build 0)  -->
<!DOCTYPE svg PUBLIC "-//W3C//DTD SVG 1.1//EN" "http://www.w3.org/Graphics/SVG/1.1/DTD/svg11.dtd">
<svg version="1.1" xmlns="http://www.w3.org/2000/svg" xmlns:xlink="http://www.w3.org/1999/xlink" x="0px" y="0px"
	 width="13.373px" height="17.803px" viewBox="0 0 13.373 17.803" style="enable-background:new 0 0 13.373 17.803;"
	 xml:space="preserve">
<g id="c92_stop">
	<path style="fill:#000000;" d="M13.148,0.042c-0.139-0.07-0.303-0.051-0.424,0.043L1.948,8.587C1.854,8.664,1.795,8.78,1.795,8.9
		c0,0.119,0.059,0.24,0.153,0.314l10.776,8.502c0.071,0.057,0.162,0.086,0.249,0.086l0.175-0.039
		c0.139-0.064,0.225-0.207,0.225-0.361V0.403C13.373,0.249,13.287,0.107,13.148,0.042z"/>
	<path style="fill:#000000;" d="M2.973,0.033H0.315C0.143,0.033,0,0.215,0,0.434v16.936c0,0.221,0.143,0.403,0.315,0.403h2.657
		c0.174,0,0.315-0.183,0.315-0.403V0.434C3.288,0.215,3.146,0.033,2.973,0.033z"/>
</g>
<g id="Capa_1">
</g>
</svg>
