<?xml version="1.0" encoding="iso-8859-1"?>
<!-- Generator: Adobe Illustrator 17.1.0, SVG Export Plug-In . SVG Version: 6.00 Build 0)  -->
<!DOCTYPE svg PUBLIC "-//W3C//DTD SVG 1.1//EN" "http://www.w3.org/Graphics/SVG/1.1/DTD/svg11.dtd">
<svg version="1.1" id="Capa_1" xmlns="http://www.w3.org/2000/svg" xmlns:xlink="http://www.w3.org/1999/xlink" x="0px" y="0px"
	 viewBox="0 0 100 100" style="enable-background:new 0 0 100 100;" xml:space="preserve">
<g>
	<path style="fill:#1D1D1B;" d="M94.353,39.789h-6.51c0-0.5-0.067-1.008-0.215-1.512C82.677,21.439,66.949,9.679,49.382,9.679
		c-17.563,0-33.29,11.757-38.244,28.591c-0.835,2.839,0.789,5.818,3.628,6.653c2.836,0.834,5.817-0.789,6.653-3.628
		c3.621-12.305,15.12-20.9,27.963-20.9c12.31,0,23.362,7.903,27.451,19.393h-6.21c-2.466,0-3.052,1.414-1.308,3.157L79.33,52.962
		c1.744,1.744,4.571,1.744,6.315,0l10.016-10.016C97.404,41.203,96.819,39.789,94.353,39.789z"/>
	<path style="fill:#1D1D1B;" d="M83.898,58.321c-2.838-0.832-5.818,0.788-6.652,3.628c-3.621,12.305-15.121,20.899-27.963,20.899
		c-12.31,0-23.362-7.904-27.451-19.393h6.21c2.466,0,3.051-1.414,1.308-3.157L19.334,50.282c-1.744-1.744-4.571-1.744-6.315,0
		L3.004,60.298c-1.744,1.744-1.158,3.157,1.308,3.157h6.509c0,0.5,0.067,1.007,0.216,1.511
		c4.951,16.838,20.678,28.598,38.246,28.598c17.564,0,33.291-11.757,38.244-28.591C88.362,62.135,86.738,59.156,83.898,58.321z"/>
</g>
</svg>
