<?xml version="1.0" encoding="iso-8859-1"?>
<!-- Generator: Adobe Illustrator 17.1.0, SVG Export Plug-In . SVG Version: 6.00 Build 0)  -->
<!DOCTYPE svg PUBLIC "-//W3C//DTD SVG 1.1//EN" "http://www.w3.org/Graphics/SVG/1.1/DTD/svg11.dtd">
<svg version="1.1" id="Capa_1" xmlns="http://www.w3.org/2000/svg" xmlns:xlink="http://www.w3.org/1999/xlink" x="0px" y="0px"
	 viewBox="0 0 100 100" style="enable-background:new 0 0 100 100;" xml:space="preserve">
<g>
	<path d="M76.466,26.832c-0.6-0.488-1.257-0.583-1.971-0.282c-0.713,0.299-1.07,0.845-1.07,1.632v7.666H3.15
		c-0.525,0-0.957,0.169-1.295,0.506c-0.338,0.339-0.507,0.77-0.507,1.296v19.72c0,0.526,0.169,0.957,0.507,1.296
		s0.77,0.506,1.295,0.506h70.276v8.655c0,0.75,0.357,1.296,1.07,1.632c0.713,0.299,1.371,0.187,1.971-0.337l21.623-19.935
		c0.376-0.376,0.563-0.827,0.563-1.351c0-0.49-0.188-0.922-0.563-1.296L76.466,26.832z"/>
</g>
</svg>
