<?xml version="1.0" encoding="iso-8859-1"?>
<!-- Generator: Adobe Illustrator 17.1.0, SVG Export Plug-In . SVG Version: 6.00 Build 0)  -->
<!DOCTYPE svg PUBLIC "-//W3C//DTD SVG 1.1//EN" "http://www.w3.org/Graphics/SVG/1.1/DTD/svg11.dtd">
<svg version="1.1" id="Capa_1" xmlns="http://www.w3.org/2000/svg" xmlns:xlink="http://www.w3.org/1999/xlink" x="0px" y="0px"
	 viewBox="0 0 100 100" style="enable-background:new 0 0 100 100;" xml:space="preserve">
<g>
	<path style="fill:#000100;" d="M40.148,44.242c-0.558-0.558-1.464-0.558-2.022,0L20.351,62.017l-4.797-4.797
		c-1.396-1.396-2.528-0.927-2.528,1.047l0,25.132c0,1.974,1.6,3.575,3.575,3.575l25.131,0c1.974,0,2.443-1.132,1.047-2.528
		l-4.797-4.797l17.775-17.775c0.558-0.558,0.558-1.464,0-2.022L40.148,44.242z"/>
	<path style="fill:#000100;" d="M83.399,13.026l-25.132,0c-1.974,0-2.443,1.132-1.047,2.528l4.797,4.797L44.242,38.126
		c-0.558,0.558-0.558,1.464,0,2.022l15.61,15.61c0.558,0.558,1.464,0.558,2.022,0l17.775-17.775l4.797,4.797
		c1.396,1.396,2.528,0.927,2.528-1.047l0-25.131C86.974,14.627,85.373,13.026,83.399,13.026z"/>
</g>
</svg>
