<?xml version="1.0" encoding="iso-8859-1"?>
<!-- Generator: Adobe Illustrator 17.1.0, SVG Export Plug-In . SVG Version: 6.00 Build 0)  -->
<!DOCTYPE svg PUBLIC "-//W3C//DTD SVG 1.1//EN" "http://www.w3.org/Graphics/SVG/1.1/DTD/svg11.dtd">
<svg version="1.1" id="Capa_1" xmlns="http://www.w3.org/2000/svg" xmlns:xlink="http://www.w3.org/1999/xlink" x="0px" y="0px"
	 viewBox="0 0 100 100" style="enable-background:new 0 0 100 100;" xml:space="preserve">
<g>
	<path style="fill:#1D1D1B;" d="M14.026,87.661h71.346c1.187,0,2.103-0.493,2.748-1.476c4.783-7.531,7.175-15.724,7.175-24.579
		c0-6.173-1.204-12.077-3.613-17.71c-2.409-5.631-5.649-10.483-9.72-14.554c-4.071-4.071-8.923-7.31-14.554-9.72
		c-5.632-2.408-11.535-3.613-17.709-3.613c-6.175,0-12.078,1.205-17.709,3.613c-5.632,2.409-10.483,5.648-14.554,9.72
		c-4.071,4.071-7.311,8.923-9.72,14.554c-2.409,5.633-3.613,11.536-3.613,17.71c0,8.89,2.392,17.083,7.175,24.579
		C11.922,87.168,12.838,87.661,14.026,87.661z M88.199,60.667c1.086,0,1.967,0.881,1.967,1.968s-0.881,1.968-1.967,1.968H77.801
		c-1.086,0-1.967-0.881-1.967-1.968s0.881-1.968,1.967-1.968H88.199z M68.563,41.403l7.552-7.148
		c0.789-0.747,2.035-0.713,2.781,0.077c0.747,0.789,0.713,2.035-0.077,2.781l-7.552,7.148c-0.79,0.747-2.035,0.713-2.782-0.077
		S67.774,42.15,68.563,41.403z M49.051,64.65l1.423-0.119l0.349-1.385l3.132-12.409c0.101-0.374,0.283-0.615,0.609-0.806
		c0.27-0.158,0.456-0.177,0.572-0.177c0.1,0,0.205,0.016,0.315,0.047c0.356,0.1,0.591,0.281,0.786,0.606
		c0.19,0.317,0.234,0.613,0.157,0.949l-3.14,12.439l-0.342,1.356l1.156,0.787c1.366,0.93,2.322,2.14,2.924,3.699
		c0.595,1.543,0.673,3.086,0.235,4.731c-0.544,2.094-1.72,3.639-3.596,4.726c-1.262,0.732-2.525,1.087-3.86,1.087
		c-0.667,0-1.361-0.092-2.065-0.275c-2.092-0.542-3.637-1.718-4.725-3.595c-1.093-1.885-1.359-3.823-0.816-5.912
		c0.436-1.635,1.267-2.937,2.541-3.98C45.993,65.365,47.414,64.787,49.051,64.65z M47.731,24.134c0-1.087,0.881-1.968,1.968-1.968
		c1.086,0,1.967,0.881,1.967,1.968v10.398c0,1.087-0.881,1.968-1.967,1.968c-1.087,0-1.968-0.881-1.968-1.968V24.134z
		 M21.436,34.332c0.747-0.789,1.993-0.823,2.782-0.077l7.552,7.148c0.789,0.747,0.823,1.992,0.077,2.781
		c-0.747,0.789-1.993,0.823-2.782,0.077l-7.552-7.148C20.724,36.366,20.689,35.121,21.436,34.332z M10.167,62.634
		c0-1.087,0.881-1.968,1.968-1.968h10.398c1.087,0,1.968,0.881,1.968,1.968s-0.881,1.968-1.968,1.968H12.134
		C11.047,64.602,10.167,63.721,10.167,62.634z"/>
</g>
</svg>
