<?xml version="1.0" encoding="iso-8859-1"?>
<!-- Generator: Adobe Illustrator 17.1.0, SVG Export Plug-In . SVG Version: 6.00 Build 0)  -->
<!DOCTYPE svg PUBLIC "-//W3C//DTD SVG 1.1//EN" "http://www.w3.org/Graphics/SVG/1.1/DTD/svg11.dtd">
<svg version="1.1" id="Capa_1" xmlns="http://www.w3.org/2000/svg" xmlns:xlink="http://www.w3.org/1999/xlink" x="0px" y="0px"
	 viewBox="0 0 100 100" style="enable-background:new 0 0 100 100;" xml:space="preserve">
<g>
	<path style="fill:#1D1D1B;" d="M49.43,22.2c-1.013,0-1.889,0.37-2.628,1.109L27.359,35.754H12.061c-1.013,0-1.889,0.37-2.628,1.109
		c-0.74,0.74-1.109,1.615-1.109,2.627v22.421c0,1.013,0.37,1.889,1.109,2.628c0.739,0.74,1.615,1.109,2.628,1.109h15.298
		l19.444,12.444c0.739,0.74,1.615,1.109,2.628,1.109c1.012,0,1.887-0.37,2.627-1.109c0.739-0.739,1.109-1.615,1.109-2.628V25.937
		c0-1.012-0.37-1.888-1.109-2.628C51.317,22.571,50.442,22.2,49.43,22.2z"/>
	<path style="fill:#1D1D1B;" d="M70.396,58.963c1.654-2.549,2.481-5.303,2.481-8.262c0-2.958-0.827-5.722-2.481-8.291
		c-1.655-2.569-3.844-4.379-6.569-5.43c-0.39-0.194-0.876-0.292-1.46-0.292c-1.013,0-1.888,0.36-2.627,1.08
		c-0.74,0.721-1.109,1.606-1.109,2.657c0,0.817,0.234,1.509,0.701,2.073c0.467,0.565,1.031,1.051,1.693,1.46
		c0.661,0.409,1.323,0.857,1.985,1.343c0.661,0.487,1.226,1.178,1.693,2.073c0.467,0.896,0.701,2.005,0.701,3.328
		c0,1.324-0.234,2.433-0.701,3.328c-0.467,0.896-1.032,1.587-1.693,2.073c-0.662,0.487-1.324,0.934-1.985,1.343
		c-0.662,0.409-1.226,0.896-1.693,1.46c-0.467,0.565-0.701,1.255-0.701,2.073c0,1.051,0.37,1.937,1.109,2.657
		c0.739,0.721,1.615,1.08,2.627,1.08c0.584,0,1.07-0.097,1.46-0.292C66.552,63.333,68.741,61.513,70.396,58.963z"/>
	<path style="fill:#1D1D1B;" d="M69.725,23.2c-0.506-0.194-1.013-0.292-1.518-0.292c-1.013,0-1.889,0.37-2.628,1.109
		c-0.74,0.74-1.109,1.616-1.109,2.628c0,1.518,0.759,2.667,2.277,3.445c2.18,1.13,3.658,1.985,4.438,2.569
		c2.88,2.102,5.128,4.739,6.744,7.912c1.615,3.173,2.423,6.549,2.423,10.13c0,3.582-0.808,6.958-2.423,10.131
		c-1.616,3.173-3.864,5.81-6.744,7.912c-0.779,0.584-2.258,1.44-4.438,2.569c-1.518,0.779-2.277,1.927-2.277,3.445
		c0,1.013,0.37,1.889,1.109,2.628c0.739,0.74,1.635,1.109,2.686,1.109c0.467,0,0.953-0.097,1.46-0.292
		c5.449-2.296,9.828-5.965,13.137-11.006c3.308-5.041,4.963-10.539,4.963-16.495c0-5.956-1.655-11.453-4.963-16.495
		C79.553,29.165,75.174,25.497,69.725,23.2z"/>
</g>
</svg>
