<?xml version="1.0" encoding="iso-8859-1"?>
<!-- Generator: Adobe Illustrator 17.1.0, SVG Export Plug-In . SVG Version: 6.00 Build 0)  -->
<!DOCTYPE svg PUBLIC "-//W3C//DTD SVG 1.1//EN" "http://www.w3.org/Graphics/SVG/1.1/DTD/svg11.dtd">
<svg version="1.1" id="Capa_1" xmlns="http://www.w3.org/2000/svg" xmlns:xlink="http://www.w3.org/1999/xlink" x="0px" y="0px"
	 viewBox="0 0 100 100" style="enable-background:new 0 0 100 100;" xml:space="preserve">
<g>
	<path style="fill:#1D1D1B;" d="M77.152,8.897c-1.486,0-2.77,0.543-3.854,1.627l-28.52,18.252H22.339
		c-1.485,0-2.77,0.543-3.854,1.627c-1.085,1.085-1.627,2.369-1.627,3.854v32.888c0,1.485,0.542,2.77,1.627,3.854
		c1.084,1.085,2.369,1.627,3.854,1.627h22.439l28.52,18.253c1.084,1.085,2.368,1.627,3.854,1.627c1.484,0,2.769-0.542,3.854-1.627
		c1.083-1.084,1.627-2.369,1.627-3.854V14.378c0-1.484-0.543-2.769-1.627-3.854C79.92,9.44,78.636,8.897,77.152,8.897z"/>
</g>
</svg>
