<?xml version="1.0" encoding="iso-8859-1"?>
<!-- Generator: Adobe Illustrator 17.1.0, SVG Export Plug-In . SVG Version: 6.00 Build 0)  -->
<!DOCTYPE svg PUBLIC "-//W3C//DTD SVG 1.1//EN" "http://www.w3.org/Graphics/SVG/1.1/DTD/svg11.dtd">
<svg version="1.1" id="Capa_1" xmlns="http://www.w3.org/2000/svg" xmlns:xlink="http://www.w3.org/1999/xlink" x="0px" y="0px"
	 viewBox="0 0 100 100" style="enable-background:new 0 0 100 100;" xml:space="preserve">
<g>
	<path style="fill:#1D1D1B;" d="M27.269,66.651l6.081,6.081c1.439,1.439,3.772,1.439,5.212,0L50,61.294l11.438,11.438
		c1.439,1.439,3.772,1.439,5.212,0l6.081-6.081c1.439-1.439,1.439-3.773,0-5.212L61.293,50l11.438-11.438
		c1.439-1.439,1.439-3.773,0-5.212l-6.081-6.081c-1.439-1.439-3.772-1.439-5.212,0L50,38.706L38.562,27.268
		c-1.439-1.439-3.772-1.439-5.212,0l-6.081,6.081c-1.439,1.439-1.439,3.773,0,5.212L38.707,50L27.269,61.438
		C25.829,62.878,25.829,65.211,27.269,66.651z"/>
	<path style="fill:#1D1D1B;" d="M83.032,4.856H16.968c-6.611,0-11.989,5.378-11.989,11.989v66.064
		c0,6.611,5.378,11.989,11.989,11.989h66.064c6.611,0,11.989-5.378,11.989-11.989V16.845C95.021,10.234,89.644,4.856,83.032,4.856z
		 M80.021,79.898H19.979V19.856h60.043V79.898z"/>
</g>
</svg>
