<?xml version="1.0" encoding="iso-8859-1"?>
<!-- Generator: Adobe Illustrator 17.1.0, SVG Export Plug-In . SVG Version: 6.00 Build 0)  -->
<!DOCTYPE svg PUBLIC "-//W3C//DTD SVG 1.1//EN" "http://www.w3.org/Graphics/SVG/1.1/DTD/svg11.dtd">
<svg version="1.1" id="Capa_1" xmlns="http://www.w3.org/2000/svg" xmlns:xlink="http://www.w3.org/1999/xlink" x="0px" y="0px"
	 viewBox="0 0 100 100" style="enable-background:new 0 0 100 100;" xml:space="preserve">
<g>
	<path style="fill:#1D1D1B;" d="M92.682,9.424c0,0-0.417,0-0.932,0s-0.932,0.437-0.932,0.977v0.977c0,1.765-1.431,3.196-3.196,3.196
		h-8.523c-1.765,0-3.196-1.431-3.196-3.196c0,0,0-0.437,0-0.977c0-0.539-0.417-0.977-0.932-0.977h-0.932h-47.41c0,0-0.417,0-0.932,0
		c-0.515,0-0.932,0.437-0.932,0.977v0.977c0,1.765-1.431,3.196-3.196,3.196h-8.523c-1.765,0-3.196-1.431-3.196-3.196
		c0,0,0-0.437,0-0.977c0-0.539-0.417-0.977-0.932-0.977H7.984c-1.765,0-3.196,1.431-3.196,3.196v74.755
		c0,1.765,1.431,3.196,3.196,3.196c0,0,0.417,0,0.932,0s0.932-0.437,0.932-0.977v-0.977c0-1.765,1.431-3.196,3.196-3.196h8.523
		c0.726,0,1.394,0.243,1.93,0.652c0.439,0.335,0.689,1.167,0.689,1.719v1.867c0,0.552,0.448,1,1,1H75.48c0.552,0,1-0.448,1-1v-1.867
		c0-0.552,0.25-1.384,0.689-1.719c0.536-0.409,1.204-0.652,1.93-0.652h8.523c1.765,0,3.196,1.431,3.196,3.196c0,0,0,0.437,0,0.977
		s0.417,0.977,0.932,0.977h0.932c1.765,0,3.196-1.431,3.196-3.196V12.62C95.879,10.855,94.448,9.424,92.682,9.424z M24.764,75.3
		c0,1.765-1.431,3.196-3.196,3.196h-8.523c-1.765,0-3.196-1.431-3.196-3.196v-8.523c0-1.765,1.431-3.196,3.196-3.196h8.523
		c1.765,0,3.196,1.431,3.196,3.196V75.3z M24.764,53.992c0,1.765-1.431,3.196-3.196,3.196h-8.523c-1.765,0-3.196-1.431-3.196-3.196
		v-8.523c0-1.765,1.431-3.196,3.196-3.196h8.523c1.765,0,3.196,1.431,3.196,3.196V53.992z M24.764,32.685
		c0,1.765-1.431,3.196-3.196,3.196h-8.523c-1.765,0-3.196-1.431-3.196-3.196v-8.523c0-1.765,1.431-3.196,3.196-3.196h8.523
		c1.765,0,3.196,1.431,3.196,3.196V32.685z M70.753,79.361c0,0.552-0.448,1-1,1h-38.84c-0.552,0-1-0.448-1-1V57.034
		c0-0.552,0.448-1,1-1h38.84c0.552,0,1,0.448,1,1V79.361z M70.753,42.25c0,0.552-0.448,1-1,1h-38.84c-0.552,0-1-0.448-1-1V20.811
		c0-0.552,0.448-1,1-1h38.84c0.552,0,1,0.448,1,1V42.25z M90.818,75.3c0,1.765-1.431,3.196-3.196,3.196h-8.523
		c-1.765,0-3.196-1.431-3.196-3.196v-8.523c0-1.765,1.431-3.196,3.196-3.196h8.523c1.765,0,3.196,1.431,3.196,3.196V75.3z
		 M90.818,53.992c0,1.765-1.431,3.196-3.196,3.196h-8.523c-1.765,0-3.196-1.431-3.196-3.196v-8.523c0-1.765,1.431-3.196,3.196-3.196
		h8.523c1.765,0,3.196,1.431,3.196,3.196V53.992z M90.818,32.685c0,1.765-1.431,3.196-3.196,3.196h-8.523
		c-1.765,0-3.196-1.431-3.196-3.196v-8.523c0-1.765,1.431-3.196,3.196-3.196h8.523c1.765,0,3.196,1.431,3.196,3.196V32.685z"/>
</g>
</svg>
