<?xml version="1.0" encoding="iso-8859-1"?>
<!-- Generator: Adobe Illustrator 17.1.0, SVG Export Plug-In . SVG Version: 6.00 Build 0)  -->
<!DOCTYPE svg PUBLIC "-//W3C//DTD SVG 1.1//EN" "http://www.w3.org/Graphics/SVG/1.1/DTD/svg11.dtd">
<svg version="1.1" id="Capa_1" xmlns="http://www.w3.org/2000/svg" xmlns:xlink="http://www.w3.org/1999/xlink" x="0px" y="0px"
	 viewBox="0 0 100 100" style="enable-background:new 0 0 100 100;" xml:space="preserve">
<g>
	<path style="fill:#000100;" d="M82.881,63.906c1.82,0,3.513,0.556,4.918,1.506l-9.692-46.196c-0.567-2.703-3.265-4.893-6.027-4.893
		H27.918c-2.761,0-5.46,2.191-6.027,4.893L12.2,65.412c1.405-0.951,3.098-1.506,4.918-1.506H82.881z"/>
	<path style="fill:#000100;" d="M17.119,87.011h65.763c3.203,0,5.8-2.597,5.8-5.8v-8.506c0-1.139-0.333-2.197-0.9-3.093
		c-1.028-1.625-2.836-2.706-4.9-2.706H17.119c-2.064,0-3.872,1.082-4.9,2.706c-0.567,0.896-0.9,1.955-0.9,3.093v8.506
		C11.319,84.415,13.916,87.011,17.119,87.011z M78.667,76.167H66.034c-0.829,0-1.5-0.671-1.5-1.5s0.671-1.5,1.5-1.5h12.633
		c0.829,0,1.5,0.671,1.5,1.5S79.495,76.167,78.667,76.167z"/>
</g>
</svg>
