<?xml version="1.0" encoding="iso-8859-1"?>
<!-- Generator: Adobe Illustrator 17.1.0, SVG Export Plug-In . SVG Version: 6.00 Build 0)  -->
<!DOCTYPE svg PUBLIC "-//W3C//DTD SVG 1.1//EN" "http://www.w3.org/Graphics/SVG/1.1/DTD/svg11.dtd">
<svg version="1.1" id="Capa_1" xmlns="http://www.w3.org/2000/svg" xmlns:xlink="http://www.w3.org/1999/xlink" x="0px" y="0px"
	 viewBox="0 0 100 100" style="enable-background:new 0 0 100 100;" xml:space="preserve">
<g>
	<path style="fill:#1D1D1B;" d="M62.87,81.493h-3.06V32.951c0-0.827-0.303-1.545-0.908-2.152c-0.606-0.605-1.323-0.908-2.151-0.908
		H38.39c-0.829,0-1.546,0.303-2.152,0.908c-0.606,0.607-0.909,1.324-0.909,2.152v6.12c0,0.829,0.303,1.546,0.909,2.152
		c0.605,0.607,1.322,0.91,2.152,0.91h3.06v39.36h-3.06c-0.829,0-1.546,0.303-2.152,0.908c-0.606,0.607-0.909,1.324-0.909,2.152v6.12
		c0,0.829,0.303,1.546,0.909,2.152c0.605,0.607,1.322,0.91,2.152,0.91h24.48c0.829,0,1.546-0.303,2.152-0.91
		c0.605-0.605,0.909-1.322,0.909-2.152v-6.12c0-0.827-0.303-1.545-0.909-2.152C64.416,81.795,63.698,81.493,62.87,81.493z"/>
	<circle style="fill:#1D1D1B;" cx="50" cy="15.281" r="10.281"/>
</g>
</svg>
