<?xml version="1.0" encoding="iso-8859-1"?>
<!-- Generator: Adobe Illustrator 17.1.0, SVG Export Plug-In . SVG Version: 6.00 Build 0)  -->
<!DOCTYPE svg PUBLIC "-//W3C//DTD SVG 1.1//EN" "http://www.w3.org/Graphics/SVG/1.1/DTD/svg11.dtd">
<svg version="1.1" id="Capa_1" xmlns="http://www.w3.org/2000/svg" xmlns:xlink="http://www.w3.org/1999/xlink" x="0px" y="0px"
	 viewBox="0 0 100 100" style="enable-background:new 0 0 100 100;" xml:space="preserve">
<g>
	<path style="fill:#1D1D1B;" d="M16.871,71.484h65.644c2.655,0,4.927-0.945,6.818-2.836c1.89-1.889,2.836-4.163,2.836-6.817V19.355
		c0-2.655-0.946-4.927-2.836-6.818c-1.891-1.889-4.163-2.835-6.818-2.835H16.871c-2.655,0-4.927,0.946-6.818,2.835
		c-1.891,1.891-2.836,4.163-2.836,6.818V61.83c0,2.654,0.945,4.928,2.836,6.817C11.943,70.539,14.216,71.484,16.871,71.484z
		 M13.776,18.072H85.61v43.801H13.776V18.072z"/>
	<path style="fill:#1D1D1B;" d="M9.537,84.75h80.312c2.42,0,4.381-1.962,4.381-4.381v-1.031c0-2.42-1.962-4.381-4.381-4.381H9.537
		c-2.42,0-4.381,1.962-4.381,4.381v1.031C5.156,82.788,7.117,84.75,9.537,84.75z M77.071,77.791h9.278
		c0.854,0,1.546,0.692,1.546,1.546c0,0.854-0.692,1.546-1.546,1.546h-9.278c-0.854,0-1.546-0.692-1.546-1.546
		C75.524,78.484,76.217,77.791,77.071,77.791z"/>
</g>
</svg>
