<?xml version="1.0" encoding="iso-8859-1"?>
<!-- Generator: Adobe Illustrator 17.1.0, SVG Export Plug-In . SVG Version: 6.00 Build 0)  -->
<!DOCTYPE svg PUBLIC "-//W3C//DTD SVG 1.1//EN" "http://www.w3.org/Graphics/SVG/1.1/DTD/svg11.dtd">
<svg version="1.1" id="Capa_1" xmlns="http://www.w3.org/2000/svg" xmlns:xlink="http://www.w3.org/1999/xlink" x="0px" y="0px"
	 viewBox="0 0 100 100" style="enable-background:new 0 0 100 100;" xml:space="preserve">
<g>
	<path style="fill:#1D1D1B;" d="M89.353,10.911H80.22c-1.681,0-3.044,1.363-3.044,3.044v27.847l-29.18-29.18
		c-2.972-2.972-5.382-1.974-5.382,2.229v27.4L12.985,12.622c-2.972-2.972-5.382-1.974-5.382,2.229v70.887
		c0,4.203,2.41,5.201,5.382,2.229l29.629-29.629v27.4c0,4.203,2.41,5.201,5.382,2.229l29.18-29.18v27.847
		c0,1.681,1.363,3.044,3.044,3.044h9.133c1.681,0,3.044-1.363,3.044-3.044V13.955C92.397,12.274,91.034,10.911,89.353,10.911z"/>
</g>
</svg>
