<?xml version="1.0" encoding="iso-8859-1"?>
<!-- Generator: Adobe Illustrator 17.1.0, SVG Export Plug-In . SVG Version: 6.00 Build 0)  -->
<!DOCTYPE svg PUBLIC "-//W3C//DTD SVG 1.1//EN" "http://www.w3.org/Graphics/SVG/1.1/DTD/svg11.dtd">
<svg version="1.1" id="Capa_1" xmlns="http://www.w3.org/2000/svg" xmlns:xlink="http://www.w3.org/1999/xlink" x="0px" y="0px"
	 viewBox="0 0 100 100" style="enable-background:new 0 0 100 100;" xml:space="preserve">
<g>
	<path style="fill:#000100;" d="M61.5,89.25c1.657,0,3-1.343,3-3L63,81H37l-1.5,5.25c0,1.657,1.343,3,3,3H61.5z"/>
	<path style="fill:#000100;" d="M91.333,12H8.667c-1.657,0-3,1.343-3,3v60c0,1.657,1.343,3,3,3H37.78H62.22h29.114
		c1.657,0,3-1.343,3-3V15C94.333,13.343,92.99,12,91.333,12z M88.25,63h-76.5V18h76.5V63z"/>
</g>
</svg>
