<?xml version="1.0" encoding="utf-8"?>
<!-- Generator: Adobe Illustrator 16.0.4, SVG Export Plug-In . SVG Version: 6.00 Build 0)  -->
<!DOCTYPE svg PUBLIC "-//W3C//DTD SVG 1.1//EN" "http://www.w3.org/Graphics/SVG/1.1/DTD/svg11.dtd">
<svg version="1.1" id="Layer_1" xmlns="http://www.w3.org/2000/svg" xmlns:xlink="http://www.w3.org/1999/xlink" x="0px" y="0px"
	 width="24px" height="24px" viewBox="0 0 24 24" enable-background="new 0 0 24 24" xml:space="preserve">
<path d="M15,12c0,1.656-1.344,3-3,3c-1.657,0-3-1.344-3-3c0-1.657,1.343-3,3-3C13.656,9,15,10.343,15,12z M21,9
	c-1.656,0-3,1.343-3,3c0,1.656,1.344,3,3,3s3-1.344,3-3C24,10.343,22.656,9,21,9z M3,9c-1.657,0-3,1.343-3,3c0,1.656,1.343,3,3,3
	s3-1.344,3-3C6,10.343,4.657,9,3,9z"/>
</svg>
