<?xml version="1.0" encoding="iso-8859-1"?>
<!-- Generator: Adobe Illustrator 17.1.0, SVG Export Plug-In . SVG Version: 6.00 Build 0)  -->
<!DOCTYPE svg PUBLIC "-//W3C//DTD SVG 1.1//EN" "http://www.w3.org/Graphics/SVG/1.1/DTD/svg11.dtd">
<svg version="1.1" id="Capa_1" xmlns="http://www.w3.org/2000/svg" xmlns:xlink="http://www.w3.org/1999/xlink" x="0px" y="0px"
	 viewBox="0 0 100 100" style="enable-background:new 0 0 100 100;" xml:space="preserve">
<g>
	<path style="fill:#1D1D1B;" d="M91.897,10.873H27.891c-1.208,0-2.188,0.98-2.188,2.188v6.018v14.224v25.133
		c-1.551-0.506-3.203-0.789-4.924-0.789c-8.762,0-15.865,7.103-15.865,15.865s7.103,15.865,15.865,15.865
		s15.865-7.103,15.865-15.865c0-0.067-0.009-0.132-0.01-0.199c0.001-0.025,0.01-0.049,0.01-0.075V35.491h46.5v22.945
		c-1.551-0.506-3.203-0.789-4.924-0.789c-8.762,0-15.865,7.103-15.865,15.865s7.103,15.865,15.865,15.865
		s15.865-7.103,15.865-15.865c0-0.067-0.009-0.132-0.01-0.199c0.001-0.025,0.01-0.049,0.01-0.075V33.303V19.079v-6.018
		C94.086,11.853,93.106,10.873,91.897,10.873z"/>
</g>
</svg>
