<?xml version="1.0" encoding="iso-8859-1"?>
<!-- Generator: Adobe Illustrator 17.1.0, SVG Export Plug-In . SVG Version: 6.00 Build 0)  -->
<!DOCTYPE svg PUBLIC "-//W3C//DTD SVG 1.1//EN" "http://www.w3.org/Graphics/SVG/1.1/DTD/svg11.dtd">
<svg version="1.1" id="Capa_1" xmlns="http://www.w3.org/2000/svg" xmlns:xlink="http://www.w3.org/1999/xlink" x="0px" y="0px"
	 viewBox="0 0 100 100" style="enable-background:new 0 0 100 100;" xml:space="preserve">
<g>
	<path style="fill:#1D1D1B;" d="M92.202,63.505h-5.064V53.376c0-1.828-0.668-3.41-2.004-4.748c-1.337-1.335-2.919-2.004-4.748-2.004
		h-27.01V36.495h5.064c1.406,0,2.602-0.49,3.587-1.476c0.984-0.984,1.478-2.179,1.478-3.588V14.55c0-1.406-0.493-2.602-1.478-3.587
		c-0.985-0.985-2.181-1.477-3.587-1.477H41.56c-1.407,0-2.603,0.492-3.587,1.477c-0.985,0.985-1.478,2.18-1.478,3.587v16.881
		c0,1.409,0.492,2.604,1.478,3.588c0.984,0.986,2.18,1.476,3.587,1.476h5.064v10.129h-27.01c-1.829,0-3.412,0.669-4.748,2.004
		c-1.337,1.337-2.004,2.92-2.004,4.748v10.129H7.798c-1.407,0-2.604,0.492-3.587,1.476c-0.985,0.986-1.477,2.181-1.477,3.588V85.45
		c0,1.406,0.492,2.602,1.477,3.588c0.984,0.984,2.18,1.476,3.587,1.476h16.881c1.406,0,2.602-0.492,3.587-1.476
		c0.984-0.986,1.478-2.181,1.478-3.588V68.569c0-1.406-0.493-2.602-1.478-3.588c-0.985-0.984-2.181-1.476-3.587-1.476h-5.064V53.376
		h27.01v10.129H41.56c-1.407,0-2.603,0.492-3.587,1.476c-0.985,0.986-1.478,2.181-1.478,3.588V85.45
		c0,1.406,0.492,2.602,1.478,3.588c0.984,0.984,2.18,1.476,3.587,1.476H58.44c1.406,0,2.602-0.492,3.587-1.476
		c0.984-0.986,1.478-2.181,1.478-3.588V68.569c0-1.406-0.493-2.602-1.478-3.588c-0.985-0.984-2.181-1.476-3.587-1.476h-5.064V53.376
		h27.01v10.129h-5.064c-1.407,0-2.603,0.492-3.587,1.476c-0.985,0.986-1.478,2.181-1.478,3.588V85.45
		c0,1.406,0.492,2.602,1.478,3.588c0.984,0.984,2.18,1.476,3.587,1.476h16.881c1.406,0,2.603-0.492,3.587-1.476
		c0.984-0.986,1.477-2.181,1.477-3.588V68.569c0-1.406-0.493-2.602-1.477-3.588C94.805,63.997,93.608,63.505,92.202,63.505z
		 M22.891,67.521c1.556,0,2.817,1.261,2.817,2.817v13.616c0,1.556-1.261,2.817-2.817,2.817H9.275c-1.556,0-2.817-1.261-2.817-2.817
		V70.338c0-1.556,1.261-2.817,2.817-2.817H22.891z M56.808,67.521c1.556,0,2.817,1.261,2.817,2.817v13.616
		c0,1.556-1.261,2.817-2.817,2.817H43.192c-1.556,0-2.817-1.261-2.817-2.817V70.338c0-1.556,1.261-2.817,2.817-2.817H56.808z
		 M43.192,32.521c-1.556,0-2.817-1.261-2.817-2.817V16.088c0-1.556,1.261-2.817,2.817-2.817h13.616c1.556,0,2.817,1.261,2.817,2.817
		v13.616c0,1.556-1.261,2.817-2.817,2.817H43.192z M93.542,83.954c0,1.556-1.261,2.817-2.817,2.817H77.109
		c-1.556,0-2.817-1.261-2.817-2.817V70.338c0-1.556,1.261-2.817,2.817-2.817h13.616c1.556,0,2.817,1.261,2.817,2.817V83.954z"/>
</g>
</svg>
