<?xml version="1.0" encoding="iso-8859-1"?>
<!-- Generator: Adobe Illustrator 16.0.0, SVG Export Plug-In . SVG Version: 6.00 Build 0)  -->
<!DOCTYPE svg PUBLIC "-//W3C//DTD SVG 1.1//EN" "http://www.w3.org/Graphics/SVG/1.1/DTD/svg11.dtd">
<svg version="1.1" xmlns="http://www.w3.org/2000/svg" xmlns:xlink="http://www.w3.org/1999/xlink" x="0px" y="0px"
	 width="13.373px" height="17.804px" viewBox="0 0 13.373 17.804" style="enable-background:new 0 0 13.373 17.804;"
	 xml:space="preserve">
<g id="c93_stop">
	<path style="fill:#000000;" d="M0.224,0.043c0.14-0.071,0.304-0.051,0.425,0.044l10.777,8.502c0.094,0.074,0.152,0.191,0.152,0.312
		c0,0.118-0.059,0.24-0.152,0.314L0.648,17.718c-0.072,0.056-0.162,0.086-0.25,0.086l-0.175-0.04C0.086,17.699,0,17.558,0,17.402
		V0.403C0,0.249,0.086,0.106,0.224,0.043z"/>
	<path style="fill:#000000;" d="M10.4,0.034h2.656c0.175,0,0.316,0.181,0.316,0.399v16.935c0,0.222-0.142,0.403-0.316,0.403H10.4
		c-0.174,0-0.316-0.182-0.316-0.403V0.434C10.084,0.215,10.227,0.034,10.4,0.034z"/>
</g>
<g id="Capa_1">
</g>
</svg>
