<?xml version="1.0" encoding="iso-8859-1"?>
<!-- Generator: Adobe Illustrator 17.1.0, SVG Export Plug-In . SVG Version: 6.00 Build 0)  -->
<!DOCTYPE svg PUBLIC "-//W3C//DTD SVG 1.1//EN" "http://www.w3.org/Graphics/SVG/1.1/DTD/svg11.dtd">
<svg version="1.1" id="Capa_1" xmlns="http://www.w3.org/2000/svg" xmlns:xlink="http://www.w3.org/1999/xlink" x="0px" y="0px"
	 viewBox="0 0 100 100" style="enable-background:new 0 0 100 100;" xml:space="preserve">
<g>
	<path style="fill:#000100;" d="M85.39,46.171l9.202-9.202c0.825-0.825,0.825-2.162,0-2.987L85.39,24.78
		c-1.237-1.237-2.24-0.822-2.24,0.928v4.768H72.228c-10.57,0-17.933,5.566-23.784,11.844c-5.05-6.14-10.472-11.844-18.146-11.844
		H10.335c-2.761,0-5,2.238-5,5s2.239,5,5,5h12.57h7.391c2.873,0,5.886,2.853,9.034,6.534c0.838,0.979,1.686,2.017,2.543,3.076
		c-0.857,1.058-1.705,2.096-2.542,3.075c-3.149,3.68-6.161,6.534-9.035,6.534h-7.392H10.335c-2.761,0-5,2.238-5,5s2.239,5,5,5
		h19.961c7.674,0,13.097-5.704,18.146-11.844c5.851,6.277,13.214,11.844,23.784,11.844H83.15v4.768c0,1.75,1.003,2.165,2.24,0.928
		l9.202-9.202c0.825-0.825,0.825-2.162,0-2.987l-9.202-9.202c-1.237-1.237-2.24-0.822-2.24,0.928v4.768H72.228
		c-0.392,0-0.769-0.033-1.149-0.057c-4.026-0.259-7.447-1.852-10.509-4.18c-2.022-1.537-3.894-3.38-5.679-5.372
		c1.786-1.993,3.658-3.836,5.68-5.373c3.061-2.327,6.481-3.919,10.506-4.179c0.381-0.025,0.759-0.057,1.151-0.057H83.15v4.768
		C83.15,46.993,84.153,47.408,85.39,46.171z"/>
</g>
</svg>
