<?xml version="1.0" encoding="iso-8859-1"?>
<!-- Generator: Adobe Illustrator 16.0.0, SVG Export Plug-In . SVG Version: 6.00 Build 0)  -->
<!DOCTYPE svg PUBLIC "-//W3C//DTD SVG 1.1//EN" "http://www.w3.org/Graphics/SVG/1.1/DTD/svg11.dtd">
<svg version="1.1" id="Capa_1" xmlns="http://www.w3.org/2000/svg" xmlns:xlink="http://www.w3.org/1999/xlink" x="0px" y="0px"
	 width="25.94px" height="25.875px" viewBox="0 0 25.94 25.875" style="enable-background:new 0 0 25.94 25.875;"
	 xml:space="preserve">
<path d="M10.632,11.016l-6.527-0.617c0,0-0.869,0.023-0.385-0.461c0.488-0.486,1.664-1.664,1.664-1.664S5.097,7.988,4.66,7.547
	C3.404,6.291,1.119,4.006,0.189,3.076c0,0-0.322-0.188,0.064-0.57C0.638,2.117,2.32,0.434,2.595,0.162
	c0.271-0.275,0.479-0.053,0.479-0.053c0.904,0.9,3.27,3.264,4.482,4.479C7.951,4.982,8.208,5.24,8.208,5.24s0.943-0.945,1.539-1.539
	c0.592-0.592,0.588,0.301,0.588,0.301s0.826,5.848,0.826,6.547C11.162,11.059,10.632,11.016,10.632,11.016z"/>
<path d="M15.371,14.871l6.525,0.617c0,0,0.871-0.025,0.387,0.459c-0.486,0.486-1.666,1.67-1.666,1.67s0.285,0.281,0.727,0.723
	c1.258,1.256,3.541,3.541,4.473,4.475c0,0,0.318,0.182-0.064,0.564c-0.385,0.387-2.07,2.074-2.348,2.348
	c-0.27,0.271-0.475,0.055-0.475,0.055c-0.904-0.906-3.27-3.268-4.484-4.482c-0.393-0.393-0.646-0.648-0.646-0.648
	s-0.945,0.941-1.543,1.535c-0.592,0.594-0.592-0.299-0.592-0.299s-0.82-5.852-0.82-6.547C14.843,14.83,15.371,14.871,15.371,14.871z
	"/>
<path d="M10.994,15.305l-0.615,6.529c0,0,0.025,0.873-0.461,0.385c-0.488-0.49-1.668-1.666-1.668-1.666s-0.287,0.287-0.721,0.727
	c-1.258,1.258-3.547,3.541-4.477,4.475c0,0-0.186,0.314-0.57-0.068s-2.066-2.072-2.344-2.34c-0.275-0.273-0.055-0.482-0.055-0.482
	c0.904-0.9,3.266-3.268,4.482-4.482c0.395-0.393,0.652-0.65,0.652-0.65s-0.943-0.945-1.539-1.535
	c-0.596-0.596,0.297-0.592,0.297-0.592s5.852-0.822,6.553-0.822C11.037,14.781,10.994,15.305,10.994,15.305z"/>
<path d="M14.849,10.568l0.615-6.531c0,0-0.023-0.867,0.461-0.383c0.488,0.488,1.666,1.668,1.666,1.668s0.287-0.287,0.729-0.727
	c1.256-1.258,3.539-3.541,4.471-4.471c0,0,0.186-0.32,0.57,0.066c0.385,0.381,2.068,2.066,2.342,2.338
	c0.277,0.275,0.057,0.482,0.057,0.482c-0.902,0.904-3.268,3.268-4.48,4.482c-0.396,0.391-0.656,0.648-0.656,0.648
	s0.947,0.943,1.541,1.537c0.592,0.598-0.297,0.592-0.297,0.592s-5.852,0.824-6.553,0.824C14.808,11.096,14.849,10.568,14.849,10.568
	z"/>
<g>
</g>
<g>
</g>
<g>
</g>
<g>
</g>
<g>
</g>
<g>
</g>
<g>
</g>
<g>
</g>
<g>
</g>
<g>
</g>
<g>
</g>
<g>
</g>
<g>
</g>
<g>
</g>
<g>
</g>
</svg>
