<?xml version="1.0" encoding="UTF-8" standalone="no"?>
<!-- Created with Inkscape (http://www.inkscape.org/) -->
<svg xmlns:dc="http://purl.org/dc/elements/1.1/" xmlns:cc="http://creativecommons.org/ns#" xmlns:rdf="http://www.w3.org/1999/02/22-rdf-syntax-ns#" xmlns:svg="http://www.w3.org/2000/svg" xmlns="http://www.w3.org/2000/svg" xmlns:sodipodi="http://sodipodi.sourceforge.net/DTD/sodipodi-0.dtd" xmlns:inkscape="http://www.inkscape.org/namespaces/inkscape" width="744.09448819" height="1052.3622047" id="svg12385" sodipodi:version="0.32" inkscape:version="0.46+pre4" sodipodi:docname="tennis black.svg" inkscape:output_extension="org.inkscape.output.svg.inkscape">
  <defs id="defs12387">
    <inkscape:perspective sodipodi:type="inkscape:persp3d" inkscape:vp_x="0 : 526.18109 : 1" inkscape:vp_y="0 : 1000 : 0" inkscape:vp_z="744.09448 : 526.18109 : 1" inkscape:persp3d-origin="372.04724 : 350.78739 : 1" id="perspective12393"/>
  </defs>
  <sodipodi:namedview id="base" pagecolor="#ffffff" bordercolor="#666666" borderopacity="1.0" gridtolerance="10000" guidetolerance="10" objecttolerance="10" inkscape:pageopacity="0.0" inkscape:pageshadow="2" inkscape:zoom="0.7" inkscape:cx="282.59269" inkscape:cy="520" inkscape:document-units="px" inkscape:current-layer="layer1" showgrid="false" inkscape:window-width="1280" inkscape:window-height="938" inkscape:window-x="-4" inkscape:window-y="-4"/>
  <metadata id="metadata12390">
    <rdf:RDF>
      <cc:Work rdf:about="">
        <dc:format>image/svg+xml</dc:format>
        <dc:type rdf:resource="http://purl.org/dc/dcmitype/StillImage"/>
        <dc:title>Other map symbols</dc:title>
        <dc:creator>
          <cc:Agent>
            <dc:title>Mohamed Ibrahim</dc:title>
          </cc:Agent>
        </dc:creator>
        <dc:rights>
          <cc:Agent>
            <dc:title>Public Domain</dc:title>
          </cc:Agent>
        </dc:rights>
        <dc:publisher>
          <cc:Agent>
            <dc:title>clker.com</dc:title>
          </cc:Agent>
        </dc:publisher>
        <dc:subject>
          <rdf:Bag>
            <rdf:li>other map symbols</rdf:li>
          </rdf:Bag>
        </dc:subject>
        <cc:license rdf:resource="http://creativecommons.org/licenses/publicdomain/"/>
      </cc:Work>
      <cc:License rdf:about="http://creativecommons.org/licenses/publicdomain/">
        <cc:permits rdf:resource="http://creativecommons.org/ns#Reproduction"/>
        <cc:permits rdf:resource="http://creativecommons.org/ns#Distribution"/>
        <cc:permits rdf:resource="http://creativecommons.org/ns#DerivativeWorks"/>
      </cc:License>
    </rdf:RDF>
  </metadata>
  <g inkscape:label="Layer 1" inkscape:groupmode="layer" id="layer1">
    <path d="M 133.16548,78.635179 C 101.79743,78.635179 76.272996,104.15962 76.272996,135.52766 L 76.272996,544.91099 C 76.272996,576.27903 101.79743,601.80347 133.16548,601.80347 L 542.49368,601.80347 C 573.91685,601.80347 599.38616,576.27903 599.38616,544.91099 L 599.38616,135.52766 C 599.38616,104.15962 573.91685,78.635179 542.49368,78.635179 L 133.16548,78.635179 z" style="fill: rgb(255, 255, 255); fill-opacity: 1; fill-rule: nonzero; stroke: none;" id="path4510"/>
    <path d="M 133.16548,67.609504 C 95.733313,67.609504 65.247321,98.040368 65.247321,135.52766 L 65.247321,544.91099 C 65.247321,582.34315 95.733313,612.82915 133.16548,612.82915 L 542.49368,612.82915 C 579.98097,612.82915 610.46696,582.34315 610.46696,544.91099 L 610.46696,135.52766 C 610.46696,98.040368 579.98097,67.609504 542.49368,67.609504 L 133.16548,67.609504 z" style="fill: rgb(35, 31, 32); fill-opacity: 1; fill-rule: nonzero; stroke: none;" id="path4512"/>
    <path d="M 160.23351,327.9257 C 151.30272,327.9257 143.97064,335.25777 143.97064,344.18857 C 143.97064,353.11937 151.30272,360.34118 160.23351,360.34118 C 169.16431,360.34118 176.38613,353.11937 176.38613,344.18857 C 176.38613,335.25777 169.16431,327.9257 160.23351,327.9257" style="fill: rgb(255, 255, 255); fill-opacity: 1; fill-rule: nonzero; stroke: none;" id="path4514"/>
    <path d="M 385.65344,192.58553 C 405.0035,192.58553 420.82535,176.87395 420.82535,157.41363 C 420.82535,137.89818 405.0035,122.07634 385.65344,122.07634 C 366.138,122.07634 350.31616,137.89818 350.31616,157.41363 C 350.31616,176.87395 366.138,192.58553 385.65344,192.58553" style="fill: rgb(255, 255, 255); fill-opacity: 1; fill-rule: nonzero; stroke: none;" id="path4516"/>
    <path d="M 197.44517,264.41781 C 193.69644,269.71013 187.90796,273.12809 180.68614,274.45117 C 170.54252,276.16015 159.2412,273.23835 149.75912,266.3473 C 140.16678,259.56651 133.71676,249.86392 132.00778,239.77542 L 131.56676,234.70361 C 131.56676,229.41129 133.0001,224.67025 135.86677,220.59075 C 145.2386,207.47019 166.68353,206.58814 183.66307,218.66126 C 200.58749,230.73437 206.81699,251.29725 197.44517,264.41781 M 537.14622,506.65189 L 479.86784,439.0645 C 479.86784,439.0645 461.95112,334.59623 461.95112,334.37572 C 461.95112,334.26546 459.24983,322.57824 459.24983,322.57824 C 459.36008,322.6885 452.08314,289.61148 446.46004,263.75627 C 455.39084,268.93833 463.49471,273.56912 463.88061,273.78963 C 464.32164,274.72681 494.25635,331.72956 494.25635,331.72956 C 496.51661,335.91931 500.32047,339.0065 504.84099,340.43984 C 509.47178,341.81805 514.32308,341.37702 518.51283,339.11676 C 522.70259,336.96675 525.84491,333.21802 527.22312,328.58724 C 528.71158,324.06671 528.27055,319.21541 526.01029,315.02566 L 493.20891,252.45495 C 493.20891,252.45495 491.88583,250.19469 490.17685,248.48571 C 487.80633,246.11519 482.62426,243.19338 482.62426,243.19338 L 418.89586,206.91891 C 410.84711,202.83941 401.86119,201.40607 392.93039,203.33557 C 389.29192,204.10736 385.81883,205.5407 381.95984,207.69071 C 381.51882,207.80097 367.40595,214.03047 359.24695,233.21515 L 326.5007,299.09356 C 326.5007,299.09356 276.66464,308.79615 274.95566,309.07179 C 274.51464,309.18205 274.07361,309.29231 273.74284,309.51282 L 227.21449,276.60118 C 216.7401,269.2691 215.47215,247.27288 215.36189,246.44596 C 214.03881,231.34078 205.43878,217.11766 191.65669,207.35994 C 179.14255,198.5394 164.0925,194.73554 150.31041,196.9958 C 139.56037,198.81504 130.40906,204.43813 124.56545,212.59713 C 120.04493,218.99203 117.67441,226.59974 117.67441,234.81387 C 117.67441,234.92413 118.33595,241.92543 118.33595,241.92543 C 120.70647,255.81778 129.19624,268.71782 141.71038,277.64862 C 154.27965,286.57942 169.27457,290.38327 183.05666,288.01275 L 186.25411,287.35121 C 186.58488,287.1307 207.25802,280.79094 217.40164,287.68198 C 217.40164,287.79224 252.24277,312.32437 261.50434,318.88464 C 260.51203,320.42824 258.80305,323.73594 258.91331,327.20903 C 258.91331,328.25647 259.02356,329.35904 259.24408,330.40647 C 261.06331,340.10907 270.54539,346.55909 280.19286,344.6296 L 342.0469,332.55648 C 342.0469,332.55648 347.28409,330.95776 349.54436,329.35904 C 352.46616,327.31929 354.61617,322.96414 354.61617,322.96414 L 370.87904,290.27302 C 370.87904,290.27302 382.0701,343.14113 382.29061,344.07831 C 381.02266,345.40139 331.57251,397.82848 331.57251,397.82848 L 330.69045,398.87592 C 325.89428,403.28619 323.19299,409.1298 323.19299,415.24905 L 323.19299,526.38785 C 323.19299,538.24045 332.89559,547.83279 344.69306,547.83279 C 356.43541,547.83279 366.138,538.24045 366.138,526.38785 L 366.138,433.55167 C 370.65853,428.81063 408.58685,388.89768 418.67534,378.31303 C 419.77791,384.59767 429.53563,440.88374 429.53563,440.88374 C 430.41769,445.84529 432.78821,450.36582 436.31642,454.00429 C 436.31642,454.11455 504.39997,534.4366 504.39997,534.4366 C 508.1487,538.73661 513.33076,541.4379 519.00899,541.98918 C 524.74234,542.43021 530.25518,540.61097 534.66545,536.91737 C 539.627,532.72762 542.16291,526.60837 542.16291,520.54424 C 542.16291,515.63782 540.56418,510.78652 537.14622,506.65189" style="fill: rgb(255, 255, 255); fill-opacity: 1; fill-rule: nonzero; stroke: none;" id="path4518"/>
  </g>
</svg>