<?xml version="1.0" encoding="ISO-8859-1"?>
<!-- Generator: Adobe Illustrator 13.0.2, SVG Export Plug-In . SVG Version: 6.00 Build 14948)  -->
<!DOCTYPE svg PUBLIC "-//W3C//DTD SVG 1.1//EN" "http://www.w3.org/Graphics/SVG/1.1/DTD/svg11.dtd">
<svg version="1.1" id="Layer_1" xmlns="http://www.w3.org/2000/svg" xmlns:xlink="http://www.w3.org/1999/xlink" x="0px" y="0px" width="106.527px" height="286.222px" viewBox="0 0 106.527 286.222" enable-background="new 0 0 106.527 286.222" xml:space="preserve">
<g>
	<rect x="46.238" y="86.385" fill="none" width="12.52" height="12.516"/>
	<rect x="30.755" y="39.927" fill="none" width="12.506" height="12.513"/>
	<rect x="46.238" y="70.899" fill="none" width="12.52" height="12.509"/>
	<rect x="46.238" y="24.224" fill="none" width="12.52" height="12.726"/>
	<rect x="46.238" y="117.357" fill="none" width="12.52" height="12.334"/>
	<rect x="46.238" y="101.875" fill="none" width="12.52" height="12.517"/>
	<rect x="30.755" y="55.417" fill="none" width="12.506" height="12.509"/>
	<rect x="30.755" y="24.224" fill="none" width="12.506" height="12.726"/>
	<path fill="none" d="M43.26,144.816v-12.148H30.755v4.69C34.617,140.742,38.815,143.274,43.26,144.816z"/>
	<path fill="none" d="M58.758,146.007v-13.339h-12.52v12.974c2.299,0.55,4.632,0.926,7.027,0.926   C55.127,146.568,56.955,146.343,58.758,146.007z"/>
	<rect x="30.755" y="70.899" fill="none" width="12.506" height="12.509"/>
	<rect x="30.755" y="117.357" fill="none" width="12.506" height="12.334"/>
	<rect x="30.755" y="101.875" fill="none" width="12.506" height="12.517"/>
	<rect x="30.755" y="86.385" fill="none" width="12.506" height="12.516"/>
	<path fill="none" d="M12.296,98.901V86.385H7.901C8.345,90.7,9.03,94.878,9.949,98.901H12.296z"/>
	<rect x="46.238" y="39.927" fill="none" width="12.52" height="12.513"/>
	<rect x="15.27" y="55.417" fill="none" width="12.506" height="12.509"/>
	<rect x="15.27" y="39.927" fill="none" width="12.506" height="12.513"/>
	<rect x="15.27" y="70.899" fill="none" width="12.506" height="12.509"/>
	<path fill="none" d="M27.775,24.224H22.43c-2.685,3.505-5.11,7.44-7.161,11.842v0.884h12.506V24.224z"/>
	<path fill="none" d="M12.296,70.899H7.409c-0.052,1.397-0.138,2.777-0.138,4.206c0,2.812,0.131,5.575,0.337,8.304h4.687   L12.296,70.899L12.296,70.899z"/>
	<rect x="15.27" y="86.385" fill="none" width="12.506" height="12.516"/>
	<rect x="15.27" y="101.875" fill="none" width="12.506" height="12.517"/>
	<path fill="none" d="M12.296,101.875h-1.645c0.496,1.893,1.053,3.734,1.645,5.541V101.875z"/>
	<rect x="46.238" y="55.417" fill="none" width="12.52" height="12.509"/>
	<path fill="none" d="M12.296,67.926V55.417H9.137c-0.774,4.002-1.347,8.166-1.632,12.509H12.296z"/>
	<path fill="none" d="M12.296,43.557c-0.974,2.834-1.816,5.795-2.519,8.882h2.519V43.557z"/>
	<rect x="61.728" y="101.875" fill="none" width="12.517" height="12.517"/>
	<path fill="none" d="M30.755,15.593v5.658H43.26V8.844C38.815,10.224,34.617,12.508,30.755,15.593z"/>
	<path fill="none" d="M77.221,21.25h4.452c-1.418-1.602-2.907-3.06-4.452-4.407V21.25z"/>
	<path fill="none" d="M46.238,21.25h12.52V7.777c-1.803-0.299-3.631-0.499-5.491-0.499c-2.396,0-4.729,0.332-7.027,0.824   L46.238,21.25L46.238,21.25z"/>
	<path fill="none" d="M27.775,21.25v-3.083c-1.009,0.96-1.972,2.01-2.922,3.083H27.775z"/>
	<path fill="none" d="M89.727,118.483v-1.125H77.221v12.334h5.66C85.421,126.36,87.703,122.585,89.727,118.483z"/>
	<path fill="none" d="M92.707,86.385v12.516h3.868c0.918-4.023,1.604-8.201,2.047-12.516H92.707z"/>
	<path fill="none" d="M92.707,111.662c1.204-3.125,2.278-6.377,3.166-9.788h-3.166V111.662z"/>
	<path fill="none" d="M92.707,55.417v12.509h6.312c-0.286-4.343-0.857-8.507-1.631-12.509H92.707z"/>
	<path fill="none" d="M27.775,129.691v-12.334H16.257c2.154,4.542,4.618,8.7,7.39,12.334H27.775z"/>
	<rect x="77.221" y="101.875" fill="none" width="12.506" height="12.517"/>
	<rect x="61.728" y="117.357" fill="none" width="12.517" height="12.334"/>
	<path fill="none" d="M77.221,132.668v3.324c1.091-1.042,2.153-2.147,3.183-3.324H77.221z"/>
	<path fill="none" d="M35.532,149.333c3.964,6.64,7.874,13.666,9.942,18.853c4.498,11.231,7.014,25.036,7.678,28.956h0.354   c0.657-3.92,3.181-17.723,7.679-28.956c2.079-5.21,6.001-12.282,9.994-18.938c-5.604,2.971-11.625,4.598-17.912,4.598   C47.047,153.845,41.073,152.253,35.532,149.333z"/>
	<path fill="none" d="M27.775,132.668h-1.652c0.551,0.626,1.084,1.284,1.652,1.875V132.668z"/>
	<rect x="77.221" y="39.927" fill="none" width="12.506" height="12.513"/>
	<rect x="61.728" y="39.927" fill="none" width="12.517" height="12.513"/>
	<rect x="61.728" y="24.224" fill="none" width="12.517" height="12.726"/>
	<path fill="none" d="M61.728,8.407V21.25h12.517v-6.809C70.355,11.609,66.157,9.56,61.728,8.407z"/>
	<path fill="none" d="M74.244,138.622v-5.954H61.728V145.3C66.157,144.014,70.355,141.736,74.244,138.622z"/>
	<rect x="61.728" y="55.417" fill="none" width="12.517" height="12.509"/>
	<rect x="77.221" y="86.385" fill="none" width="12.506" height="12.516"/>
	<rect x="61.728" y="70.899" fill="none" width="12.517" height="12.509"/>
	<rect x="61.728" y="86.385" fill="none" width="12.517" height="12.516"/>
	<rect x="77.221" y="70.899" fill="none" width="12.506" height="12.509"/>
	<rect x="77.221" y="55.417" fill="none" width="12.506" height="12.509"/>
	<path fill="none" d="M77.221,36.95h12.506v-3.871c-1.693-3.218-3.576-6.17-5.63-8.855h-6.876V36.95z"/>
	<path fill="none" d="M92.707,83.408h6.208c0.203-2.729,0.337-5.492,0.337-8.304c0-1.428-0.086-2.808-0.138-4.206h-6.408   L92.707,83.408L92.707,83.408z"/>
	<path fill="none" d="M92.707,52.439h4.04c-1.008-4.433-2.312-8.608-3.872-12.513h-0.168V52.439z"/>
	<path d="M106.527,75.104C106.527,31.691,82.638,0,53.266,0S0,31.691,0,75.104c0,23.14,6.786,43.977,17.575,58.403l-0.534,0.351   c0.168,0.248,16.797,24.829,21.677,37.028c3.82,9.527,6.175,21.447,7.034,26.255H43.87v1.827v76.742l-3.176,3.799v0.65v6.061H66.38   v-7.234l-3.95-3.939v-77.905h-1.528c0.856-4.808,3.228-16.729,7.031-26.255c4.876-12.199,21.508-36.78,21.684-37.028l-0.619-0.42   C99.762,119.03,106.527,98.213,106.527,75.104z M7.271,75.104c0-1.428,0.086-2.808,0.138-4.206h4.887v12.509H7.609   C7.402,80.679,7.271,77.916,7.271,75.104z M15.27,83.408V70.899h12.506v12.509H15.27z M27.775,86.385v12.516H15.27V86.385H27.775z    M15.27,67.926V55.417h12.506v12.509H15.27z M15.27,52.439V39.927h12.506V52.44L15.27,52.439L15.27,52.439z M15.27,36.95v-0.884   c2.051-4.401,4.477-8.336,7.161-11.842h5.345V36.95H15.27z M12.296,55.417v12.509h-4.79c0.285-4.343,0.856-8.507,1.632-12.509   H12.296z M9.777,52.439c0.702-3.087,1.545-6.048,2.519-8.882v8.882H9.777z M12.296,86.385v12.516H9.949   C9.03,94.878,8.345,90.7,7.901,86.385H12.296z M12.296,101.875v5.541c-0.592-1.807-1.148-3.648-1.645-5.541H12.296z M15.27,101.875   h12.506v12.517H15.27V101.875z M58.758,55.417v12.509h-12.52V55.417H58.758z M46.238,52.439V39.927h12.52V52.44L46.238,52.439   L46.238,52.439z M58.758,70.899v12.509h-12.52V70.899H58.758z M58.758,86.385v12.516h-12.52V86.385H58.758z M58.758,101.875v12.517   h-12.52v-12.517H58.758z M58.758,117.357v12.334h-12.52v-12.334H58.758z M58.758,36.95h-12.52V24.224h12.52V36.95z M43.26,39.927   V52.44H30.755V39.927H43.26z M30.755,36.95V24.224H43.26V36.95H30.755z M43.26,55.417v12.509H30.755V55.417H43.26z M43.26,70.899   v12.509H30.755V70.899H43.26z M43.26,86.385v12.516H30.755V86.385H43.26z M43.26,101.875v12.517H30.755v-12.517H43.26z    M43.26,117.357v12.334H30.755v-12.334H43.26z M30.755,21.25v-5.658c3.861-3.085,8.061-5.369,12.506-6.749V21.25H30.755z    M43.26,132.668v12.148c-4.445-1.542-8.645-4.074-12.506-7.458v-4.69H43.26z M46.238,132.668h12.52v13.339   c-1.803,0.336-3.631,0.561-5.491,0.561c-2.396,0-4.729-0.375-7.027-0.926L46.238,132.668L46.238,132.668z M61.728,114.391v-12.517   h12.517v12.517H61.728z M74.244,117.357v12.334H61.728v-12.334H74.244z M61.728,98.901V86.385h12.517v12.516H61.728z    M61.728,83.408V70.899h12.517v12.509H61.728z M61.728,67.926V55.417h12.517v12.509H61.728z M61.728,52.439V39.927h12.517V52.44   L61.728,52.439L61.728,52.439z M61.728,36.95V24.224h12.517V36.95H61.728z M74.244,132.668v5.954   c-3.889,3.114-8.087,5.393-12.517,6.68v-12.633L74.244,132.668L74.244,132.668z M61.728,21.25V8.407   c4.429,1.153,8.628,3.202,12.517,6.035v6.809L61.728,21.25L61.728,21.25z M89.727,33.079v3.871H77.221V24.224h6.876   C86.151,26.908,88.033,29.861,89.727,33.079z M96.747,52.439h-4.04V39.927h0.168C94.435,43.831,95.739,48.007,96.747,52.439z    M99.252,75.104c0,2.812-0.134,5.575-0.337,8.304h-6.208V70.899h6.408C99.166,72.296,99.252,73.676,99.252,75.104z M89.727,55.417   v12.509H77.221V55.417H89.727z M77.221,52.439V39.927h12.506V52.44L77.221,52.439L77.221,52.439z M89.727,70.899v12.509H77.221   V70.899H89.727z M89.727,86.385v12.516H77.221V86.385H89.727z M89.727,101.875v12.517H77.221v-12.517H89.727z M92.707,98.901   V86.385h5.916c-0.443,4.315-1.129,8.493-2.047,12.516H92.707z M95.873,101.875c-0.888,3.411-1.962,6.663-3.166,9.788v-9.788H95.873   z M92.707,67.926V55.417h4.681c0.773,4.002,1.345,8.166,1.631,12.509H92.707z M77.221,117.357h12.506v1.125   c-2.023,4.102-4.306,7.877-6.846,11.208h-5.66V117.357z M81.674,21.25h-4.452v-4.407C78.766,18.191,80.256,19.648,81.674,21.25z    M58.758,7.777V21.25h-12.52V8.103c2.299-0.492,4.632-0.824,7.027-0.824C55.127,7.278,56.955,7.478,58.758,7.777z M27.775,18.167   v3.083h-2.922C25.803,20.177,26.767,19.127,27.775,18.167z M16.257,117.357h11.52v12.334h-4.13   C20.875,126.057,18.411,121.9,16.257,117.357z M26.123,132.668h1.652v1.875C27.208,133.952,26.674,133.294,26.123,132.668z    M61.184,168.187c-4.498,11.232-7.021,25.036-7.679,28.956h-0.354c-0.664-3.92-3.18-17.724-7.678-28.956   c-2.068-5.188-5.979-12.213-9.942-18.852c5.541,2.918,11.515,4.512,17.733,4.512c6.286,0,12.31-1.629,17.911-4.598   C67.186,155.904,63.263,162.976,61.184,168.187z M77.221,135.992v-3.324h3.183C79.375,133.845,78.312,134.95,77.221,135.992z"/>
</g>
</svg>