<?xml version="1.0" encoding="UTF-8" standalone="no"?>
<!DOCTYPE svg PUBLIC "-//W3C//DTD SVG 20010904//EN" "http://www.w3.org/TR/2001/REC-SVG-20010904/DTD/svg10.dtd">
<svg height="297mm" id="svg1065" space="preserve" width="210mm" xmlns="http://www.w3.org/2000/svg" xmlns:xlink="http://www.w3.org/1999/xlink" 
     viewBox="0 400 700 600">
  <defs id="defs1067">
    <linearGradient id="linearGradient613" x1="-0.44805193" x2="1.12337661" y1="3.90644707e-2" y2="0.55468756">
      <stop offset="0" stop-color="rgb(102, 103, 103)"/>
      <stop offset="1" stop-color="rgb(243, 242, 242)"/>
    </linearGradient>
    <linearGradient id="linearGradient617" x1="3.40267583e-8" x2="1" y1="2.88393437e-7" y2="2.88393437e-7">
      <stop offset="0" stop-color="rgb(0, 47, 255)"/>
      <stop offset="1" stop-color="rgb(0, 210, 255)"/>
    </linearGradient>
    <radialGradient cx="0.14787759" cy="0.44104704" fx="0.14787759" fy="0.44104704" id="radialGradient621" r="1.21914566">
      <stop offset="0" stop-color="rgb(0, 47, 255)"/>
      <stop offset="1" stop-color="rgb(0, 210, 255)"/>
    </radialGradient>
    <linearGradient id="linearGradient659" x1="3.64689186e-8" x2="1" y1="-7.87910835e-7" y2="-7.87910835e-7">
      <stop id="stop661" offset="0" stop-color="rgb(90, 58, 0)"/>
      <stop id="stop662" offset="1" stop-color="rgb(181, 87, 0)"/>
    </linearGradient>
  </defs>
  <path d="M 416.1915 420.4722 C 416.1914 515.0332 484.081 573.3936 532.3719 580.9572 C 462.0018 589.5654 401.6856 505.5948 400.7644 404.172 C 400.7644 309.6111 474.5365 196.3582 568.3828 250.0296 C 469.3849 226.1883 416.1914 325.9113 416.1915 420.4722 z " id="path609" style="fill: rgb(128, 128, 128); fill-rule: evenodd; stroke-width: 1;" transform="matrix(0.526812, 0.863047, -0.922754, 0.492726, 555.323, -259.616)"/>
  <path d="M 612.3266 306.7496 C 646.3233 364.5647 602.5204 449.6466 514.4899 496.7852 C 426.4594 543.9238 327.5367 535.2688 293.5401 477.4537 C 259.5433 419.6386 303.3465 334.5568 391.3769 287.4182 C 479.4074 240.2796 578.3299 248.9346 612.3266 306.7496 z M 624.408 321.5502 C 649.3072 392.8789 616.2241 465.508 521.2186 518.8185 C 426.2133 572.1289 354.9153 566.3118 299.0591 513.5194 C 245.71 463.0507 282.6412 342.2988 385.9147 286.626 C 480.9201 233.3156 598.6464 251.0933 624.408 321.5502 z " id="path1074" style="fill: url(#linearGradient613) rgb(0, 0, 0); fill-rule: evenodd; stroke-width: 1;"/>
  <path d="M 498.0093 31.88945 C 545.1006 99.24717 553.6677 165.9302 568.5827 279.4048 C 559.7012 248.9398 599.4503 250.2098 602.3406 266.2422 C 621.1034 159.4538 668.8506 56.331 708.663 -17.94747 C 694.7423 -18.52522 686.7485 -24.01908 688.0483 -36.04575 C 677.3559 -11.09988 649.4699 30.0514 617.3574 47.6058 C 615.0333 54.34914 619.7576 62.80021 626.09 66.86723 C 632.806 65.16612 636.7314 67.89312 625.9106 91.93546 C 610.3433 133.3262 597.7629 166.4365 587.4074 207.586 C 586.0513 211.0011 582.6169 213.2484 582.1523 210.4914 C 574.0234 167.0258 565.9648 128.143 560.1321 108.0357 C 557.2159 97.98196 558.6324 86.37468 573.9348 78.61247 C 564.1315 78.42651 556.4266 73.32398 561.6135 60.15566 C 532.6949 44.70081 528.1865 38.26439 519.5271 29.18067 C 509.5301 20.59781 501.0435 22.7095 498.0093 31.88945 z " id="path1070" style="fill: url(#radialGradient621) rgb(0, 0, 0); fill-rule: evenodd; fill-opacity: 1;" transform="matrix(0.612826, 0.790218, -0.790218, 0.612826, 0, 0)"/>
  <path d="M 591.3309 231.1894 C 583.2095 230.1047 566.9222 240.431 567.145 244.5724 L 562.0318 367.427 C 562.0318 370.6988 564.7338 378.1627 565.9919 372.394 C 568.421 367.7352 577.9586 359.1783 584.0361 359.6408 C 592.258 360.6241 604.3881 369.5119 605.8839 374.8032 L 608.7303 247.976 C 608.5954 246.9915 608.7469 245.3542 607.9775 244.5065 C 605.8468 237.8268 594.3947 231.3884 591.3309 231.1894 z " id="path614" style="fill: rgb(128, 128, 128); fill-rule: evenodd;" transform="matrix(0.602742, 0.797936, -0.797936, 0.602742, 0, 0)"/>
  <path d="M 63.99471 668.528 C 58.08884 665.6456 52.16021 673.8187 52.13235 680.3903 L 52.08504 691.5512 C 52.05718 698.1229 58.04152 700.5311 63.9474 703.4136 L 75.06899 708.8417 C 80.97487 711.7242 86.90349 703.5509 86.93135 696.9792 L 86.97867 685.8183 C 87.00652 679.2468 81.02219 676.8384 75.11629 673.956 L 63.99471 668.528 z " id="path616" style="fill: url(#linearGradient617) rgb(0, 0, 0); fill-rule: evenodd; fill-opacity: 1;" transform="matrix(0.999805, 0.019742, -0.019742, 0.999805, 0, 0)"/>
  <path d="M 291.9722 429.7143 L 521.346 269.4444 " id="path622" style="fill: none; fill-rule: evenodd; stroke: black; stroke-opacity: 1; stroke-width: 1pt; stroke-linejoin: miter; stroke-linecap: butt; fill-opacity: 1;"/>
  <path d="M 289.5757 446.7634 L 541.2881 271.139 " id="path623"  style="fill: none; fill-rule: evenodd; stroke: black; stroke-opacity: 1; stroke-width: 1pt; stroke-linejoin: miter; stroke-linecap: butt; fill-opacity: 1;"/>
  <path d="M 291.8695 462.1179 L 554.1431 276.2229 " id="path624"  style="fill: none; fill-rule: evenodd; stroke: black; stroke-opacity: 1; stroke-width: 1pt; stroke-linejoin: miter; stroke-linecap: butt; fill-opacity: 1;"/>
  <path d="M 295.2586 475.8805 L 569.4976 282.5049 " id="path625"  style="fill: none; fill-rule: evenodd; stroke: black; stroke-opacity: 1; stroke-width: 1pt; stroke-linejoin: miter; stroke-linecap: butt; fill-opacity: 1;"/>
  <path d="M 302.0372 488.3421 L 582.4555 289.2837 " id="path626"  style="fill: none; fill-rule: evenodd; stroke: black; stroke-opacity: 1; stroke-width: 1pt; stroke-linejoin: miter; stroke-linecap: butt; fill-opacity: 1;"/>
  <path d="M 311.5031 497.4143 L 594.2151 297.7567 " id="path627"  style="fill: none; fill-rule: evenodd; stroke: black; stroke-opacity: 1; stroke-width: 1pt; stroke-linejoin: miter; stroke-linecap: butt; fill-opacity: 1;"/>
  <path d="M 322.6635 505.8875 L 601.5927 308.4208 " id="path628"  style="fill: none; fill-rule: evenodd; stroke: black; stroke-opacity: 1; stroke-width: 1pt; stroke-linejoin: miter; stroke-linecap: butt; fill-opacity: 1;"/>
  <path d="M 335.8092 512.4603 L 609.5695 319.1876 " id="path629"  style="fill: none; fill-rule: evenodd; stroke: black; stroke-opacity: 1; stroke-width: 1pt; stroke-linejoin: miter; stroke-linecap: butt; fill-opacity: 1;"/>
  <path d="M 349.0579 519.4445 L 616.4508 331.5465 " id="path630"  style="fill: none; fill-rule: evenodd; stroke: black; stroke-opacity: 1; stroke-width: 1pt; stroke-linejoin: miter; stroke-linecap: butt; fill-opacity: 1;"/>
  <path d="M 365.4903 524.1348 L 620.2336 345.7026 " id="path631"  style="fill: none; fill-rule: evenodd; stroke: black; stroke-opacity: 1; stroke-width: 1pt; stroke-linejoin: miter; stroke-linecap: butt; fill-opacity: 1;"/>
  <path d="M 385.9286 525.9323 L 622.5273 359.4475 " id="path632"  style="fill: none; fill-rule: evenodd; stroke: black; stroke-opacity: 1; stroke-width: 1pt; stroke-linejoin: miter; stroke-linecap: butt; fill-opacity: 1;"/>
  <path d="M 294.2661 412.4773 L 498.614 269.5473 " id="path633"  style="fill: none; fill-rule: evenodd; stroke: black; stroke-opacity: 1; stroke-width: 1pt; stroke-linejoin: miter; stroke-linecap: butt; fill-opacity: 1;"/>
  <path d="M 408.0153 526.9152 L 619.5122 377.729 " id="path635"  style="fill: none; fill-rule: evenodd; stroke: black; stroke-opacity: 1; stroke-width: 1pt; stroke-linejoin: miter; stroke-linecap: butt; fill-opacity: 1;"/>
  <path d="M 349.9407 324.5193 L 544.823 476.6122 " id="path636" style="fill: none; fill-rule: evenodd; stroke: black; stroke-opacity: 1; stroke-width: 1pt; stroke-linejoin: miter; stroke-linecap: butt; fill-opacity: 1;"/>
  <path d="M 341.0439 333.4161 L 534.2316 484.6617 " id="path637" style="fill: none; fill-rule: evenodd; stroke: black; stroke-opacity: 1; stroke-width: 1pt; stroke-linejoin: miter; stroke-linecap: butt; fill-opacity: 1;"/>
  <path d="M 331.7235 341.8893 L 522.7928 491.4402 " id="path638"  style="fill: none; fill-rule: evenodd; stroke: black; stroke-opacity: 1; stroke-width: 1pt; stroke-linejoin: miter; stroke-linecap: butt; fill-opacity: 1;"/>
  <path d="M 324.0977 351.2098 L 511.7777 498.6424 " id="path639" style="fill: none; fill-rule: evenodd; stroke: black; stroke-opacity: 1; stroke-width: 1pt; stroke-linejoin: miter; stroke-linecap: butt; fill-opacity: 1;"/>
  <path d="M 316.8955 360.9539 L 499.4917 504.5736 " id="path640"  style="fill: none; fill-rule: evenodd; stroke: black; stroke-opacity: 1; stroke-width: 1pt; stroke-linejoin: miter; stroke-linecap: butt; fill-opacity: 1;"/>
  <path d="M 311.3879 371.5453 L 484.6637 509.6575 " id="path641" style="fill: none; fill-rule: evenodd; stroke: black; stroke-opacity: 1; stroke-width: 1pt; stroke-linejoin: miter; stroke-linecap: butt; fill-opacity: 1;"/>
  <path d="M 305.0331 382.1367 L 471.5303 516.0124 " id="path642" style="fill: none; fill-rule: evenodd; stroke: black; stroke-opacity: 1; stroke-width: 1pt; stroke-linejoin: miter; stroke-linecap: butt; fill-opacity: 1;"/>
  <path d="M 299.1019 395.2701 L 455.0077 519.8253 " id="path643" style="fill: none; fill-rule: evenodd; stroke: black; stroke-opacity: 1; stroke-width: 1pt; stroke-linejoin: miter; stroke-linecap: butt; fill-opacity: 1;"/>
  <path d="M 360.9558 316.0461 L 554.5671 468.5627 " id="path644"  style="fill: none; fill-rule: evenodd; stroke: black; stroke-opacity: 1; stroke-width: 1pt; stroke-linejoin: miter; stroke-linecap: butt; fill-opacity: 1;"/>
  <path d="M 371.9709 308.4204 L 565.1585 460.0896 " id="path645"  style="fill: none; fill-rule: evenodd; stroke: black; stroke-opacity: 1; stroke-width: 1pt; stroke-linejoin: miter; stroke-linecap: butt; fill-opacity: 1;"/>
  <path d="M 384.257 301.2183 L 574.9026 450.7692 " id="path646"  style="fill: none; fill-rule: evenodd; stroke: black; stroke-opacity: 1; stroke-width: 1pt; stroke-linejoin: miter; stroke-linecap: butt; fill-opacity: 1;"/>
  <path d="M 396.9666 294.4396 L 582.9521 441.0251 " id="path647"  style="fill: none; fill-rule: evenodd; stroke: black; stroke-opacity: 1; stroke-width: 1pt; stroke-linejoin: miter; stroke-linecap: butt; fill-opacity: 1;"/>
  <path d="M 410.5237 288.5085 L 591.4252 431.2809 " id="path648"  style="fill: none; fill-rule: evenodd; stroke: black; stroke-opacity: 1; stroke-width: 1pt; stroke-linejoin: miter; stroke-linecap: butt; fill-opacity: 1;"/>
  <path d="M 424.0807 282.5773 L 599.0511 420.6895 " id="path649" style="fill: none; fill-rule: evenodd; stroke: black; stroke-opacity: 1; stroke-width: 1pt; stroke-linejoin: miter; stroke-linecap: butt; fill-opacity: 1;"/>
  <path d="M 437.6377 277.4934 L 605.8296 409.6744 " id="path650" style="fill: none; fill-rule: evenodd; stroke: black; stroke-opacity: 1; stroke-width: 1pt; stroke-linejoin: miter; stroke-linecap: butt; fill-opacity: 1;"/>
  <path d="M 455.0077 274.1041 L 611.7608 397.3884 " id="path651" style="fill: none; fill-rule: evenodd; stroke: black; stroke-opacity: 1; stroke-width: 1pt; stroke-linejoin: miter; stroke-linecap: butt; fill-opacity: 1;"/>
  <path d="M 472.3776 270.7149 L 617.2683 385.1023 " id="path652"  style="fill: none; fill-rule: evenodd; stroke: black; stroke-opacity: 1; stroke-width: 1pt; stroke-linejoin: miter; stroke-linecap: butt; fill-opacity: 1;"/>
  <path d="M 497.3735 270.291 L 621.0814 366.8849 " id="path653" style="fill: none; fill-rule: evenodd; stroke: black; stroke-opacity: 1; stroke-width: 1pt; stroke-linejoin: miter; stroke-linecap: butt; fill-opacity: 1;"/>
  <path d="M 298.2547 394.8462 L 471.9541 271.1384 " id="path654" style="fill: none; fill-rule: evenodd; stroke: black; stroke-opacity: 1; stroke-width: 1pt; stroke-linejoin: miter; stroke-linecap: butt; fill-opacity: 1;"/>
  <path d="M 438.6181 523.638 L 610.8348 400.5655 " id="path655"  style="fill: none; fill-rule: evenodd; stroke: black; stroke-opacity: 1; stroke-width: 1pt; stroke-linejoin: miter; stroke-linecap: butt; fill-opacity: 1;"/>
  <path d="M 103.2483 630.0995 L 81.34227 645.2273 C 84.13137 643.6738 92.87841 661.7924 94.36981 665.1392 C 95.38231 668.3136 97.28188 687.2379 94.98708 688.3677 L 117.8026 671.845 C 119.0736 670.0091 118.2878 653.6363 116.9295 650.3111 C 115.2794 647.2319 106.0727 627.84 103.2483 630.0995 z " id="path663" style="fill: url(#linearGradient659) rgb(0, 0, 0); fill-rule: evenodd;"/>
  <path d="M 146.7096 599.6222 C 149.4987 599.3397 158.969 615.1902 160.4604 618.537 C 161.4729 621.7114 163.0729 639.7369 160.7781 640.8668 L 169.4844 634.7644 C 175.5441 631.1826 174.529 613.6218 172.4286 610.4874 C 170.8175 607.4757 153.715 597.628 146.7096 599.6222 z " id="path669" style="fill: url(#linearGradient659) rgb(0, 0, 0); fill-rule: evenodd;"/>
  <path d="M 146.1618 599.8959 L 124.979 615.1477 C 127.7681 613.5942 136.9388 630.8655 138.4302 634.2123 C 139.4427 637.3867 141.0427 655.7119 138.7479 656.8417 L 161.5634 640.3189 C 162.8344 638.483 162.3482 622.7094 160.9899 619.3842 C 159.3398 616.305 148.9862 597.6364 146.1618 599.8959 z " id="path670" style="fill: url(#linearGradient659) rgb(0, 0, 0); fill-rule: evenodd;"/>
  <path d="M 81.76585 645.6509 L 58.88842 660.9027 C 61.67752 659.3492 71.29758 679.3893 72.78898 682.7361 C 73.80148 685.9106 73.45426 704.3855 71.15947 705.5153 L 95.32302 688.0939 C 96.59402 686.2579 96.5572 669.7354 95.1989 666.4102 C 93.54881 663.331 84.59026 643.3914 81.76585 645.6509 z " id="path671" style="fill: url(#linearGradient659) rgb(0, 0, 0); fill-rule: evenodd;"/>
  <path d="M 124.9789 615.0234 L 103.0729 630.0998 C 105.862 628.5463 114.9086 646.1172 116.4 649.464 C 117.4125 652.6384 119.3121 671.4129 117.0173 672.5427 L 139.3834 656.1697 C 140.6544 654.3339 140.318 637.9611 138.9597 634.6359 C 137.3096 631.5567 127.8033 612.764 124.9789 615.0234 z " id="path672" style="fill: url(#linearGradient659) rgb(0, 0, 0); fill-rule: evenodd;"/>
  <path d="M 59.31219 660.6906 L 46.39069 669.1638 C 49.17979 667.6104 63.70714 676.0504 67.25587 678.0607 C 69.83807 679.6164 71.563 682.0149 73.50476 685.0511 C 73.71658 683.1447 63.40755 660.3375 59.31219 660.6906 z " id="path673" style="fill: url(#linearGradient659) rgb(0, 0, 0); fill-rule: evenodd;"/>
  <path d="M 477.1939 353.1388 L 465.2348 343.3206 C 461.7762 340.4812 457.077 340.0433 451.1371 342.0071 C 445.2702 344.0308 437.9078 348.0025 429.0503 353.9225 C 418.8805 360.7196 412.6097 366.4832 410.2378 371.2134 C 409.2524 373.1731 408.8687 374.8124 409.0861 376.1309 C 409.4494 377.4064 410.5411 378.7912 412.3614 380.2857 L 419.1874 385.8897 C 419.5516 386.1887 421.6995 387.9521 425.6313 391.18 C 429.563 394.4078 433.2401 397.4267 436.6622 400.2361 C 440.0844 403.0457 442.2321 404.8089 443.106 405.5263 C 443.9796 406.2436 441.5587 404.2561 435.8429 399.5635 L 448.9491 410.3234 L 451.2973 412.2512 C 451.3699 412.3109 451.4429 412.3707 451.5158 412.4306 C 451.5885 412.4903 451.6794 412.565 451.7887 412.6547 C 451.8616 412.7145 451.9343 412.7742 452.0072 412.8341 C 452.0799 412.8937 452.1709 412.9684 452.2801 413.0581 L 467.0791 425.2078 C 468.9723 426.5992 472.6526 425.5491 478.1202 422.0575 C 483.5877 418.566 485.6664 415.7938 484.3568 413.7414 L 452.3016 387.4248 C 449.5345 385.4788 451.5954 382.2034 458.4846 377.5989 C 464.9364 373.2868 469.3458 371.9394 471.7124 373.5567 L 471.8217 373.6464 L 502.6204 399.1758 C 506.334 402.0617 506.2211 406.285 502.2821 411.8457 C 498.343 417.4064 492.8011 422.6284 485.6568 427.512 C 478.5488 432.4255 471.041 436.115 463.1334 438.5805 C 455.2259 441.0461 449.2518 440.6202 445.2107 437.3026 L 431.777 426.2738 L 431.6132 426.1392 L 415.6674 413.0481 L 399.9402 400.1364 L 391.2028 392.9632 C 388.0356 390.363 386.5078 387.6429 386.6194 384.803 C 386.6218 382.0363 388.3733 378.4255 391.8745 373.971 C 398.2568 365.6931 408.3371 356.9496 422.1155 347.7406 C 438.9558 336.4852 453.1513 329.4101 464.7021 326.5156 C 469.3664 325.296 473.2647 324.9949 476.3971 325.6122 C 479.5298 326.0669 482.5707 327.5048 485.5193 329.9255 L 495.622 338.2196 L 497.3694 339.6542 L 510.421 350.3693 L 546.8447 380.2724 C 547.9005 381.1392 548.1726 382.4212 547.6612 384.1186 C 547.2955 385.7727 545.0898 387.952 541.0437 390.6562 C 534.1545 395.2607 529.5269 396.4288 527.1606 394.1604 C 525.8502 393.0846 522.155 390.0509 516.0751 385.0595 C 510.0317 380.098 504.1706 375.2861 498.4913 370.6236 C 492.8485 365.9909 488.6799 362.5686 485.9859 360.3568 C 483.3282 358.175 484.7482 359.3407 490.2454 363.8538 L 477.1939 353.1388 z M 612.8214 320.1133 C 641.4334 364.0478 606.9938 457.8091 486.3605 509.5427 C 398.601 547.4225 314.9539 518.6949 299.0369 480.6078 C 271.6583 416.4585 313.6688 331.6128 406.0085 290.5879 C 498.1469 250.2418 574.2889 262.1422 612.8214 320.1133 z " id="path770" style="font-weight: normal; fill: rgb(255, 255, 255); font-family: Captain Podd; opacity: 0.0316;"/>
</svg>
