<?xml version="1.0" encoding="UTF-8" standalone="no"?>
<!-- Created with Inkscape (http://www.inkscape.org/) -->
<svg
   xmlns:svg="http://www.w3.org/2000/svg"
   xmlns="http://www.w3.org/2000/svg"
   xmlns:xlink="http://www.w3.org/1999/xlink"
   version="1.0" width="100%" height="100%"
   viewBox="0 -90 425 425"
   id="svg2">
  <defs
     id="defs4">
    <linearGradient
       id="linearGradient4950">
      <stop
         id="stop4952"
         style="stop-color:#e2fa5b;stop-opacity:1"
         offset="0" />
      <stop
         id="stop4954"
         style="stop-color:#d4f70c;stop-opacity:1"
         offset="1" />
    </linearGradient>
    <radialGradient
       cx="253.74461"
       cy="600.07898"
       r="205.71875"
       fx="253.74461"
       fy="600.07898"
       id="radialGradient4956"
       xlink:href="#linearGradient4950"
       gradientUnits="userSpaceOnUse"
       gradientTransform="translate(0,-1.82004e-3)" />
    <radialGradient
       cx="253.74461"
       cy="600.07898"
       r="205.71875"
       fx="253.74461"
       fy="600.07898"
       id="radialGradient4967"
       xlink:href="#linearGradient4950"
       gradientUnits="userSpaceOnUse"
       gradientTransform="translate(0,-1.82004e-3)" />
  </defs>
  <g
     id="layer1">
    <g
       transform="translate(-43,-477.09551)"
       id="g4960">
      <path
         d="M 252.36853,389.41117 C 136.70783,390.14455 43.076139,484.24738 43.076139,600.07964 C 43.076139,601.31603 43.150889,602.52851 43.172149,603.75986 C 45.149579,718.34096 138.6945,810.74811 253.74462,810.74812 C 338.13215,810.74812 410.70113,760.90308 444.2398,689.15415 C 445.35106,686.77684 445.34625,683.89478 446.37083,681.4704 C 450.43677,671.84942 453.98034,662.48224 457.41826,652.24466 C 457.84742,650.56239 458.73087,648.88305 459.11923,647.18493 C 462.58327,632.03828 464.4131,616.27131 464.4131,600.07964 C 464.4131,567.40711 456.74514,536.57635 443.45187,508.97025 C 429.09714,479.15991 407.96709,453.21984 382.05357,433.19146 C 377.73996,430.12555 374.83668,431.84373 373.02888,430.54154 C 370.39265,428.6426 368.46005,427.51868 366.11328,425.98336 C 364.35863,424.83546 365.712,422.24674 361.46364,419.13705 C 329.96695,400.26691 293.13647,389.41117 253.74462,389.41117 C 253.29038,389.41117 252.82211,389.40829 252.36853,389.41117 z"
         id="path4943"
         style="opacity:1;fill:#d7f721;fill-opacity:0.30357098;fill-rule:nonzero;stroke:none;stroke-width:2;stroke-miterlimit:4;stroke-dasharray:none;stroke-dashoffset:0;stroke-opacity:0.254464" />
      <path
         d="M 252.38701,392.23957 C 138.27915,392.96311 45.904559,485.80252 45.904559,600.07964 C 45.904559,601.29943 45.978309,602.49563 45.999269,603.71044 C 47.950159,716.75318 140.23916,807.91969 253.74462,807.9197 C 336.99917,807.9197 408.59385,758.74386 441.68222,687.95823 C 442.77856,685.61284 442.77383,682.76948 443.78465,680.37764 C 447.79599,670.88584 451.292,661.64442 454.68376,651.54428 C 455.10716,649.88461 455.97875,648.22781 456.36189,646.55249 C 459.77941,631.6092 461.58468,616.05391 461.58468,600.07964 C 461.58468,567.84577 454.01968,537.42893 440.90487,510.19347 C 426.74288,480.78337 405.89651,455.19156 380.33091,435.43208 C 376.0752,432.40733 373.2109,434.10245 371.42738,432.81774 C 368.82655,430.9443 366.91989,429.83546 364.60462,428.32076 C 362.87353,427.18826 364.20874,424.6343 360.01742,421.56637 C 328.94359,402.94957 292.60759,392.23957 253.74462,392.23957 C 253.29648,392.23957 252.83449,392.23673 252.38701,392.23957 z"
         id="path4941"
         style="opacity:1;fill:#d7f721;fill-opacity:0.54017902;fill-rule:nonzero;stroke:none;stroke-width:2;stroke-miterlimit:4;stroke-dasharray:none;stroke-dashoffset:0;stroke-opacity:0.254464" />
      <path
         d="M 252.40087,394.36088 C 139.45765,395.07703 48.025869,486.96888 48.025869,600.07963 C 48.025869,601.28697 48.098869,602.47096 48.119619,603.67338 C 50.050599,715.56235 141.39765,805.79837 253.74462,805.79838 C 336.14943,805.79838 407.01339,757.12445 439.76404,687.06129 C 440.84919,684.73984 440.84451,681.9255 441.84501,679.55807 C 445.81541,670.16315 449.27574,661.01605 452.63288,651.019 C 453.05196,649.37627 453.91465,647.73638 454.29388,646.07816 C 457.67652,631.28739 459.46337,615.89086 459.46337,600.07963 C 459.46337,568.17476 451.97558,538.06837 438.99462,511.11088 C 424.97718,482.00096 404.34358,456.67035 379.03891,437.11254 C 374.82664,434.11867 371.99157,435.79649 370.22625,434.52489 C 367.65197,432.67057 365.76477,431.57305 363.47313,430.07381 C 361.75971,428.95286 363.08129,426.42497 358.93275,423.38835 C 328.17607,404.96157 292.21094,394.36088 253.74462,394.36088 C 253.30105,394.36088 252.84378,394.35807 252.40087,394.36088 z"
         id="path3060"
         style="opacity:1;fill:url(#radialGradient4967);fill-opacity:1;fill-rule:nonzero;stroke:none;stroke-width:2;stroke-miterlimit:4;stroke-dasharray:none;stroke-dashoffset:0;stroke-opacity:0.254464" />
      <path
         d="M 363.125,428 C 328.02515,458.44301 283.77592,475.55137 241.2676,493.34223 C 214.33038,504.46474 186.10509,514.99668 165.84697,536.70655 C 126.12648,577.33106 111.37235,640.70802 128.8125,694.8125 C 145.21839,745.78496 192.95627,784.06916 245.95946,790.66723 C 287.73327,796.14919 331.49763,786.53551 365.8125,761.84375 C 391.01509,743.90933 413.65729,722.31619 433,698.21875 C 438.94003,690.69649 444.74985,682.98684 447,673.46875 C 449.42806,664.55121 454.93911,656.00739 454.40625,646.59375 C 446.34975,654.47119 443.24192,666.11682 436.18569,674.91931 C 416.76626,701.94253 393.04671,725.51157 367.075,746.0375 C 340.91386,766.84013 308.29869,779.41227 274.78161,779.90166 C 234.342,782.2678 193.19344,766.30037 166.375,736 C 141.93474,709.24028 130.57612,671.78758 134.2067,635.75521 C 137.93013,588.35614 164.95113,541.246 208.80623,520.62657 C 261.43646,496.15745 319.06928,479.59167 364.53822,442.37801 C 366.73576,439.40545 373.78772,437.18476 371.875,432.875 C 369.64163,430.63193 366.48704,427.90302 363.125,428 z"
         id="path4946"
         style="fill:#f5f8ae;fill-opacity:0.47767902;fill-rule:evenodd;stroke:none;stroke-width:8.05599976;stroke-linecap:butt;stroke-linejoin:miter;stroke-miterlimit:4;stroke-dasharray:none;stroke-opacity:1" />
      <path
         d="M 363.41402,430.02469 C 321.51533,468.28421 246.68568,490.92574 203.49462,511.98588 C 147.33339,539.37033 119.1698,602.93537 124.15087,662.07963 C 130.18583,733.73783 189.209,786.25437 258.02587,789.79838 C 315.87234,792.77745 350.72943,771.04137 373.96337,753.45463 C 387.27577,743.37792 404.57603,727.39847 420.05712,710.61088 C 426.9613,703.12403 433.18592,694.85346 440.60954,684.4206 C 441.81795,682.51328 447.44145,666.54928 452.68935,650.85137 C 452.07046,652.18584 450.99882,653.88891 446.20017,662.52594 C 438.57329,676.25349 429.29571,688.68529 414.11962,705.14213 C 398.94353,721.59897 381.8057,737.39085 369.08837,747.01713 C 346.36745,764.21553 314.13129,784.60436 258.43212,781.73588 C 193.45267,778.38949 137.87644,729.0369 132.18212,661.42338 C 127.45533,605.2984 154.34406,544.92375 207.02587,519.23588 C 249.3944,498.57681 326.3518,475.94349 370.34465,434.57163 C 371.12133,433.84123 364.24345,429.26731 363.41402,430.02469 z"
         id="path3125"
         style="fill:#f5f8ae;fill-opacity:1;fill-rule:evenodd;stroke:none;stroke-width:8.05599976;stroke-linecap:butt;stroke-linejoin:miter;stroke-miterlimit:4;stroke-dasharray:none;stroke-opacity:1" />
    </g>
  </g>
</svg>
