<?xml version="1.0" encoding="iso-8859-1"?>
<!-- Generator: Adobe Illustrator 17.1.0, SVG Export Plug-In . SVG Version: 6.00 Build 0)  -->
<!DOCTYPE svg PUBLIC "-//W3C//DTD SVG 1.1//EN" "http://www.w3.org/Graphics/SVG/1.1/DTD/svg11.dtd">
<svg version="1.1" id="Capa_1" xmlns="http://www.w3.org/2000/svg" xmlns:xlink="http://www.w3.org/1999/xlink" x="0px" y="0px"
	 viewBox="0 0 100 100" style="enable-background:new 0 0 100 100;" xml:space="preserve">
<g>
	<path style="fill:#1D1D1B;" d="M79,22.167H67.932C67.243,12.312,59.026,4.5,49,4.5s-18.243,7.812-18.932,17.667H19
		c-1.657,0-3,1.343-3,3v1.667c0,1.657,1.343,3,3,3h2.526L23.5,92.667c0,1.657,1.343,3,3,3h45c1.657,0,3-1.343,3-3l1.974-62.833H79
		c1.657,0,3-1.343,3-3v-1.667C82,23.51,80.657,22.167,79,22.167z M35.569,83.992c-1.012,0.027-1.855-0.772-1.882-1.784l-1.04-38.986
		c-0.027-1.012,0.772-1.855,1.784-1.882c1.012-0.027,1.855,0.772,1.882,1.784l1.04,38.986C37.38,83.123,36.581,83.965,35.569,83.992
		z M51.833,82.167C51.833,83.179,51.013,84,50,84s-1.833-0.821-1.833-1.833v-39c0-1.013,0.821-1.833,1.833-1.833
		s1.833,0.821,1.833,1.833V82.167z M36.068,22.167C36.738,15.622,42.282,10.5,49,10.5s12.262,5.122,12.932,11.667H36.068z
		 M65.646,82.209c-0.027,1.012-0.869,1.811-1.882,1.784c-1.012-0.027-1.811-0.869-1.784-1.882l1.04-38.986
		c0.027-1.012,0.869-1.811,1.882-1.784c1.012,0.027,1.811,0.869,1.784,1.882L65.646,82.209z"/>
</g>
</svg>
