<?xml version="1.0" encoding="utf-8"?>
<!-- Generator: Adobe Illustrator 16.0.0, SVG Export Plug-In . SVG Version: 6.00 Build 0)  -->
<!DOCTYPE svg PUBLIC "-//W3C//DTD SVG 1.1//EN" "http://www.w3.org/Graphics/SVG/1.1/DTD/svg11.dtd">
<svg version="1.1" id="Capa_1" xmlns="http://www.w3.org/2000/svg" xmlns:xlink="http://www.w3.org/1999/xlink" x="0px" y="0px"
	 width="55px" height="54.01px" viewBox="0 0 55 54.01" enable-background="new 0 0 55 54.01" xml:space="preserve">
<g>
	<path id="path3378" fill="#040606" d="M47.47,27.216c-2.453,0-4.447-1.992-4.447-4.446c0-2.456,1.994-4.446,4.447-4.446
		c2.458,0,4.446,1.99,4.446,4.446C51.916,25.224,49.928,27.216,47.47,27.216z M47.47,38.332c-2.453,0-4.447-1.99-4.447-4.447
		c0-2.456,1.994-4.447,4.447-4.447c2.458,0,4.446,1.991,4.446,4.447S49.928,38.332,47.47,38.332z M40.977,45
		c0,2.456-2.165,4.798-4.624,4.798H9.673c-2.451,0-4.226-2.342-4.226-4.798V22.768c0-2.454,1.775-4.825,4.226-4.825h26.679
		c2.459,0,4.624,2.371,4.624,4.825V45z M49.692,14.268H33.214c-1.353,0-1.748-1.04-0.88-2.079l4.332-5.294
		c0.867-1.04,1.646-1.913,1.739-1.891c0.054,0.016,0.109,0.002,0.172,0.002c1.229,0,2.224-1.005,2.224-2.236
		c0-1.225-0.994-2.228-2.224-2.228c-1.226,0-2.224,0.995-2.224,2.22c0,0.132,0.016,0.259,0.043,0.382
		c0.045,0.209-0.59,1.211-1.456,2.25l-5.501,6.598c-0.865,1.04-1.751,1.882-1.976,1.882c-0.225,0-1.108-0.842-1.975-1.883
		L19.99,5.396c-0.867-1.041-1.508-2.045-1.464-2.254c0.026-0.124,0.041-0.251,0.041-0.382c0-1.225-0.994-2.222-2.224-2.222
		c-1.225,0-2.224,0.997-2.224,2.222c0,1.23,0.999,2.224,2.224,2.224c0.064,0,0.121-0.012,0.176-0.026
		c0.095-0.022,0.875,0.801,1.742,1.842l4.329,5.392c0.866,1.04,0.471,2.079-0.881,2.079H5.228c-2.452-0.002-4.681,1.596-4.681,4.051
		v31.125c0,2.459,2.229,4.027,4.681,4.027h44.465c2.458,0,4.761-1.569,4.761-4.027V18.321C54.453,15.866,52.15,14.268,49.692,14.268
		"/>
</g>
</svg>
