<?xml version="1.0" encoding="utf-8"?>
<!-- Generator: Adobe Illustrator 16.0.4, SVG Export Plug-In . SVG Version: 6.00 Build 0)  -->
<!DOCTYPE svg PUBLIC "-//W3C//DTD SVG 1.1//EN" "http://www.w3.org/Graphics/SVG/1.1/DTD/svg11.dtd">
<svg version="1.1" id="Layer_1" xmlns="http://www.w3.org/2000/svg" xmlns:xlink="http://www.w3.org/1999/xlink" x="0px" y="0px"
	 width="50px" height="50px" viewBox="0 0 50 50" enable-background="new 0 0 50 50" xml:space="preserve">
<path d="M31.104,20.789H25.52v-4.483h4.617C30.73,17.754,31.057,19.261,31.104,20.789z M31.094,21.827H25.52v4.483h4.502
	C30.654,24.854,31.016,23.347,31.094,21.827z M24.48,16.306h-4.617c-0.594,1.449-0.919,2.957-0.967,4.483h5.584V16.306z
	 M24.48,15.267v-5.258c-1.808,1.635-3.199,3.402-4.139,5.258H24.48z M34.673,15.267c-1.696-2.713-4.435-4.582-7.563-5.167
	c1.621,1.626,2.865,3.363,3.705,5.167H34.673z M32.143,20.789h4.25c-0.072-1.573-0.455-3.08-1.142-4.483h-4
	C31.799,17.759,32.1,19.267,32.143,20.789z M31.148,26.31h4.103c0.687-1.403,1.069-2.91,1.142-4.483h-4.259
	C32.061,23.347,31.729,24.854,31.148,26.31z M24.48,26.31v-4.483h-5.575c0.08,1.52,0.44,3.027,1.073,4.483H24.48z M25.52,9.992
	v5.275h4.14C28.711,13.396,27.307,11.617,25.52,9.992z M22.89,10.1c-3.129,0.585-5.866,2.454-7.563,5.167h3.858
	C20.025,13.462,21.27,11.727,22.89,10.1z M18.852,26.31c-0.581-1.456-0.912-2.963-0.985-4.483h-4.258
	c0.07,1.573,0.454,3.08,1.14,4.483H18.852z M37.371,29.498v10.51H12.629v-10.51h4.448c-0.658-0.64-1.251-1.353-1.75-2.149h3.986
	c0.357,0.731,0.798,1.446,1.284,2.149h1.277c-0.528-0.701-1.005-1.416-1.395-2.149h4.002v2.149h1.039v-2.149h4.002
	c-0.39,0.733-0.867,1.448-1.395,2.149h1.275c0.486-0.703,0.927-1.418,1.285-2.149h3.985c-0.499,0.797-1.092,1.51-1.75,2.149H37.371z
	 M20.237,36.963h-3.41v-5.641h-0.718h-0.714v6.859h4.843v-0.612L20.237,36.963L20.237,36.963z M22.26,31.322h-0.718h-0.714v6.859
	h0.719h0.713V31.322z M28.775,31.322h-0.74h-0.737l-1.502,5.234l-1.507-5.234h-0.761h-0.761l2.324,6.859h0.681h0.683L28.775,31.322z
	 M34.605,36.963h-3.773v-1.787h3.354v-0.592v-0.588h-3.354v-1.455h3.616v-0.613v-0.605H29.4v6.858h5.207v-0.612v-0.605H34.605z
	 M18.749,16.306h-4c-0.686,1.403-1.07,2.91-1.14,4.483h4.249C17.901,19.267,18.201,17.759,18.749,16.306z"/>
</svg>
