<?xml version="1.0" encoding="iso-8859-1"?>
<!-- Generator: Adobe Illustrator 17.1.0, SVG Export Plug-In . SVG Version: 6.00 Build 0)  -->
<!DOCTYPE svg PUBLIC "-//W3C//DTD SVG 1.1//EN" "http://www.w3.org/Graphics/SVG/1.1/DTD/svg11.dtd">
<svg version="1.1" id="Capa_1" xmlns="http://www.w3.org/2000/svg" xmlns:xlink="http://www.w3.org/1999/xlink" x="0px" y="0px"
	 viewBox="0 0 100 100" style="enable-background:new 0 0 100 100;" xml:space="preserve">
<g>
	<path d="M25.856,82.795h0.004l31.031-0.044c1.378-0.002,2.5-1.125,2.5-2.503v-3.48c0-1.377-1.12-2.498-2.5-2.498l-31.031,0.043
		c-1.378,0.002-2.5,1.125-2.5,2.503v3.482C23.36,81.675,24.48,82.795,25.856,82.795z"/>
	<path d="M12.434,89.779c0.012,4.781,0.012,4.812,0.502,4.812c0.003,0,0.006,0,0.009,0l1.734,0.048c0.005,0,0.009,0,0.014,0
		c0,0,14.022,0,28.044-0.006c7.012-0.003,14.023-0.008,19.281-0.015c2.629-0.003,4.821-0.007,6.354-0.012
		c2.909-0.009,2.909-0.009,2.909-0.502l0.049-1.748V59.623c0-1.378-1.122-2.5-2.5-2.5h-1.946c-1.378,0-2.5,1.122-2.5,2.5v26.621
		c0,0.827-0.673,1.5-1.5,1.5H20.905c-0.827,0-1.5-0.673-1.5-1.5V59.623c0-1.378-1.122-2.5-2.5-2.5H14.91c-1.378,0-2.5,1.121-2.5,2.5
		c0,3.814,0.002,12.432,0.009,20.095C12.422,83.549,12.427,87.143,12.434,89.779z"/>
	<path d="M26.103,70.097l30.948,2.854c0.078,0.007,0.155,0.01,0.231,0.01c1.3,0,2.364-0.978,2.477-2.274l0.299-3.447
		c0.119-1.372-0.9-2.59-2.271-2.717l-30.899-2.853c-1.404-0.13-2.593,0.889-2.721,2.259l-0.322,3.449
		c-0.062,0.665,0.138,1.314,0.564,1.827C24.836,69.719,25.438,70.036,26.103,70.097z"/>
	<path d="M74.357,39.288c0.208,1.2,1.243,2.071,2.459,2.071c0.143,0,0.287-0.012,0.432-0.038l3.442-0.601
		c1.358-0.237,2.271-1.535,2.035-2.893L77.414,7.234c-0.232-1.341-1.505-2.274-2.891-2.034l-3.442,0.601
		c-1.358,0.237-2.271,1.535-2.035,2.893L74.357,39.288z"/>
	<path d="M33.948,36.923L60.68,52.725c0.385,0.228,0.825,0.349,1.271,0.349c0.881,0,1.707-0.47,2.154-1.227l1.777-3
		c0.34-0.575,0.437-1.247,0.271-1.894c-0.166-0.646-0.574-1.19-1.149-1.529L38.272,29.621c-1.146-0.678-2.751-0.261-3.426,0.878
		l-1.776,3c-0.34,0.575-0.437,1.248-0.271,1.894C32.965,36.04,33.374,36.583,33.948,36.923z"/>
	<path d="M66.169,44.46c0.466,0.682,1.237,1.088,2.063,1.088c0.505,0,0.993-0.151,1.411-0.438l2.844-1.95
		c1.136-0.779,1.43-2.339,0.656-3.479l-17.47-25.678c-0.749-1.1-2.369-1.409-3.47-0.651l-2.898,1.995
		c-1.135,0.781-1.426,2.341-0.649,3.479L66.169,44.46z"/>
	<path d="M28.09,54.561l29.978,8.032c0.212,0.057,0.43,0.086,0.648,0.086c1.128,0,2.121-0.763,2.412-1.854l0.9-3.37
		c0.356-1.332-0.438-2.705-1.769-3.062L30.281,46.36c-1.31-0.351-2.713,0.466-3.06,1.769l-0.9,3.371
		C25.965,52.83,26.759,54.204,28.09,54.561z"/>
</g>
</svg>
