<?xml version="1.0" encoding="utf-8"?>
<!-- Generator: Adobe Illustrator 16.0.4, SVG Export Plug-In . SVG Version: 6.00 Build 0)  -->
<!DOCTYPE svg PUBLIC "-//W3C//DTD SVG 1.1//EN" "http://www.w3.org/Graphics/SVG/1.1/DTD/svg11.dtd">
<svg version="1.1" id="Capa_1" xmlns="http://www.w3.org/2000/svg" xmlns:xlink="http://www.w3.org/1999/xlink" x="0px" y="0px"
	 width="216px" height="146px" viewBox="0 0 216 146" enable-background="new 0 0 216 146" xml:space="preserve">
<g>
	<path d="M130.193,125.143h-20.856c-0.761,0-1.385,0.244-1.874,0.734c-0.488,0.488-0.733,1.113-0.733,1.873v15.643
		c0,0.762,0.244,1.385,0.733,1.875c0.489,0.488,1.113,0.732,1.874,0.732h20.856c0.761,0,1.386-0.244,1.873-0.732
		c0.49-0.49,0.732-1.113,0.732-1.875V127.75c0-0.76-0.242-1.385-0.732-1.873C131.579,125.387,130.954,125.143,130.193,125.143z"/>
	<path d="M91.086,114.714H75.443V2.607c0-0.76-0.244-1.386-0.733-1.874C74.221,0.245,73.597,0,72.836,0H57.193
		c-0.76,0-1.386,0.244-1.874,0.733c-0.488,0.489-0.733,1.114-0.733,1.874v112.107H38.943c-1.194,0-2.009,0.543-2.444,1.629
		c-0.435,1.033-0.244,1.983,0.57,2.853l26.071,26.072c0.598,0.487,1.222,0.731,1.874,0.731c0.706,0,1.331-0.244,1.874-0.731
		l25.99-25.99c0.544-0.651,0.815-1.305,0.815-1.954c0-0.763-0.245-1.386-0.733-1.878C92.471,114.958,91.847,114.714,91.086,114.714z
		"/>
	<path d="M145.836,83.43h-36.5c-0.761,0-1.385,0.244-1.874,0.732c-0.488,0.488-0.733,1.113-0.733,1.873v15.645
		c0,0.76,0.244,1.385,0.733,1.873c0.489,0.488,1.113,0.732,1.874,0.732h36.5c0.76,0,1.385-0.244,1.873-0.732
		c0.489-0.488,0.734-1.113,0.734-1.873V86.035c0-0.76-0.245-1.385-0.734-1.873C147.221,83.674,146.596,83.43,145.836,83.43z"/>
	<path d="M178.996,0.733C178.507,0.245,177.883,0,177.122,0h-67.785c-0.761,0-1.385,0.244-1.874,0.733
		c-0.488,0.489-0.733,1.114-0.733,1.874V18.25c0,0.761,0.244,1.385,0.733,1.874c0.489,0.488,1.113,0.733,1.874,0.733h67.785
		c0.761,0,1.385-0.244,1.874-0.733c0.488-0.489,0.732-1.113,0.732-1.874V2.607C179.729,1.847,179.484,1.221,178.996,0.733z"/>
	<path d="M161.479,41.715h-52.143c-0.761,0-1.385,0.244-1.874,0.733c-0.488,0.489-0.733,1.113-0.733,1.874v15.643
		c0,0.761,0.244,1.385,0.733,1.874c0.489,0.488,1.113,0.733,1.874,0.733h52.143c0.76,0,1.385-0.244,1.875-0.733
		c0.488-0.489,0.732-1.113,0.732-1.874V44.322c0-0.761-0.244-1.386-0.732-1.874C162.863,41.96,162.238,41.715,161.479,41.715z"/>
</g>
</svg>
