<?xml version="1.0" encoding="iso-8859-1"?>
<!-- Generator: Adobe Illustrator 17.1.0, SVG Export Plug-In . SVG Version: 6.00 Build 0)  -->
<!DOCTYPE svg PUBLIC "-//W3C//DTD SVG 1.1//EN" "http://www.w3.org/Graphics/SVG/1.1/DTD/svg11.dtd">
<svg version="1.1" id="Capa_1" xmlns="http://www.w3.org/2000/svg" xmlns:xlink="http://www.w3.org/1999/xlink" x="0px" y="0px"
	 viewBox="0 0 100 100" style="enable-background:new 0 0 100 100;" xml:space="preserve">
<g>
	<path style="fill:#1D1D1B;" d="M70.851,17.701c-0.352-0.426-1.085-0.771-1.637-0.771H30.786c-0.552,0-1.285,0.345-1.637,0.771
		L7.637,43.718C7.285,44.143,7,44.936,7,45.488v35.581c0,0.552,0.448,1,1,1h84c0.552,0,1-0.448,1-1V45.488
		c0-0.552-0.285-1.345-0.637-1.771L70.851,17.701z M82.115,44.488H71.214c-0.552,0-1.062,0.443-1.138,0.99l-2.057,14.739
		c-0.076,0.547-0.586,0.99-1.138,0.99H33.119c-0.552,0-1.062-0.443-1.138-0.99l-2.057-14.739c-0.076-0.547-0.586-0.99-1.138-0.99
		H17.033c-0.552,0-0.719-0.349-0.373-0.779L32.769,23.67c0.346-0.43,1.074-0.779,1.627-0.779h30.356
		c0.552,0,1.281,0.349,1.627,0.779l16.109,20.039C82.835,44.14,82.667,44.488,82.115,44.488z"/>
</g>
</svg>
